<svg width="736" height="552" version="1.1" xmlns="http://www.w3.org/2000/svg" desc="Created with imagetracer.js version 1.2.6" ><path fill="rgb(0,0,0)" stroke="rgb(0,0,0)" stroke-width="1" opacity="1" d="M 0 0 L 736 0 L 736 552 L 0 552 L 0 0 Z M 339 160 L 319 166 L 307 174 Q 294 185 290 206 Q 289 222 296 231 Q 303 240 317 243 L 329 243 L 343 236 Q 349 230 351 221 L 351 204 L 350 203 Q 350 190 355 184 Q 360 177 370 175 L 384 175 L 392 177 L 399 181 Q 409 188 412 204 L 411 219 L 406 229 Q 396 241 379 246 L 363 249 L 351 249 L 350 250 L 325 250 L 324 251 L 316 251 L 299 254 Q 274 260 258 273 Q 241 286 236 312 L 236 331 L 238 340 Q 242 354 251 364 Q 260 374 272 381 L 282 386 L 303 392 L 332 392 Q 333 390 338 391 L 359 385 L 377 378 L 388 376 L 403 377 L 411 381 Q 416 384 419 391 L 419 282 L 420 281 L 421 268 L 425 259 Q 429 252 439 250 L 450 251 L 466 257 Q 471 256 473 258 Q 483 258 489 254 Q 497 248 500 238 L 500 227 L 495 215 L 488 207 L 480 203 L 471 201 L 454 202 L 438 210 Q 425 220 420 239 L 419 250 L 418 251 L 418 300 L 417 301 L 416 319 Q 412 339 401 352 Q 389 365 368 370 L 347 370 L 342 369 Q 329 366 320 359 L 306 345 L 300 331 L 299 318 L 298 317 L 299 316 L 299 307 L 301 299 L 305 290 L 313 278 L 328 267 L 338 262 L 378 250 Q 391 245 401 237 Q 408 231 412 221 L 414 210 Q 413 192 405 183 Q 395 169 378 163 L 366 160 L 339 160 Z " /><path fill="rgb(236,236,236)" stroke="rgb(236,236,236)" stroke-width="1" opacity="1" d="M 338.5 160 L 346 160.5 L 338.5 161 L 338.5 160 Z " /><path fill="rgb(236,236,236)" stroke="rgb(236,236,236)" stroke-width="1" opacity="1" d="M 360.5 160 L 366 160.5 L 360.5 161 L 360.5 160 Z " /><path fill="rgb(236,236,236)" stroke="rgb(236,236,236)" stroke-width="1" opacity="1" d="M 333.5 161 L 337 161.5 L 333.5 162 L 333.5 161 Z " /><path fill="rgb(236,236,236)" stroke="rgb(236,236,236)" stroke-width="1" opacity="1" d="M 367.5 161 L 371 161.5 L 368.5 163 L 367.5 161 Z " /><path fill="rgb(236,236,236)" stroke="rgb(236,236,236)" stroke-width="1" opacity="1" d="M 329.5 162 L 332 162.5 L 329.5 163 L 329.5 162 Z " /><path fill="rgb(236,236,236)" stroke="rgb(236,236,236)" stroke-width="1" opacity="1" d="M 375.5 163 L 378 163.5 Q 375.9 166.8 375.5 163 Z " /><path fill="rgb(236,236,236)" stroke="rgb(236,236,236)" stroke-width="1" opacity="1" d="M 381.5 165 L 388 168.5 L 386.5 168 L 381.5 166 L 381.5 165 Z " /><path fill="rgb(236,236,236)" stroke="rgb(236,236,236)" stroke-width="1" opacity="1" d="M 318.5 166 L 320 166.5 L 318 167.5 Q 320.3 168.8 317.5 170 L 315 168.5 L 318.5 166 Z " /><path fill="rgb(236,236,236)" stroke="rgb(236,236,236)" stroke-width="1" opacity="1" d="M 313.5 169 L 314 171 L 312 171.5 Q 314.3 172.8 311.5 174 L 311.5 172 L 308.5 174 L 311.5 170 L 313.5 169 Z " /><path fill="rgb(236,236,236)" stroke="rgb(236,236,236)" stroke-width="1" opacity="1" d="M 389.5 169 L 393 171.5 L 391.5 171 L 389.5 170 L 387.5 171 L 387.5 170 L 389.5 169 Z " /><path fill="rgb(236,236,236)" stroke="rgb(236,236,236)" stroke-width="1" opacity="1" d="M 373.5 173 L 382 174.5 L 370.5 175 L 370.5 174 L 373.5 173 Z " /><path fill="rgb(236,236,236)" stroke="rgb(236,236,236)" stroke-width="1" opacity="1" d="M 393.5 173 L 395.5 173 L 405 182.5 L 408 187.5 L 407 189.5 L 409 189.5 Q 407.5 192.5 406 189.5 L 399 181.5 L 400 178.5 L 398.5 177 L 397.5 181 Q 394.8 179.8 397 178.5 L 394.5 175 L 392.5 176 L 393 174.5 L 393.5 173 Z M 404 182 L 402 184 L 406 187 L 404 182 Z " /><path fill="rgb(236,236,236)" stroke="rgb(236,236,236)" stroke-width="1" opacity="1" d="M 306.5 174 L 306 175.5 L 304.5 178 L 302.5 179 L 306.5 174 Z " /><path fill="rgb(236,236,236)" stroke="rgb(236,236,236)" stroke-width="1" opacity="1" d="M 387.5 174 L 388 176 L 391 176.5 L 388.5 177 L 384 175.5 L 387.5 174 Z " /><path fill="rgb(236,236,236)" stroke="rgb(236,236,236)" stroke-width="1" opacity="1" d="M 311.5 175 L 310.5 177 L 311.5 175 Z " /><path fill="rgb(236,236,236)" stroke="rgb(236,236,236)" stroke-width="1" opacity="1" d="M 366.5 175 L 369 175.5 L 364.5 177 L 364.5 176 L 366.5 175 Z " /><path fill="rgb(236,236,236)" stroke="rgb(236,236,236)" stroke-width="1" opacity="1" d="M 353.5 177 L 353.5 180 Q 350.5 178.5 353.5 177 Z " /><path fill="rgb(236,236,236)" stroke="rgb(236,236,236)" stroke-width="1" opacity="1" d="M 357.5 178 L 359.5 179 L 361 178.5 L 358.5 180 L 357.5 178 Z " /><path fill="rgb(236,236,236)" stroke="rgb(236,236,236)" stroke-width="1" opacity="1" d="M 301.5 180 L 299.5 183 L 301.5 180 Z " /><path fill="rgb(236,236,236)" stroke="rgb(236,236,236)" stroke-width="1" opacity="1" d="M 298.5 184 L 299 186 L 297 185.5 L 298.5 184 Z " /><path fill="rgb(236,236,236)" stroke="rgb(236,236,236)" stroke-width="1" opacity="1" d="M 354.5 184 L 354 185.5 L 351.5 192 L 351 189.5 L 354.5 184 Z " /><path fill="rgb(236,236,236)" stroke="rgb(236,236,236)" stroke-width="1" opacity="1" d="M 296.5 187 L 297.5 189 L 296.5 187 Z " /><path fill="rgb(236,236,236)" stroke="rgb(236,236,236)" stroke-width="1" opacity="1" d="M 295.5 189 L 297.5 192 L 295.5 189 Z " /><path fill="rgb(236,236,236)" stroke="rgb(236,236,236)" stroke-width="1" opacity="1" d="M 409.5 191 L 408.5 193 L 409.5 191 Z " /><path fill="rgb(236,236,236)" stroke="rgb(236,236,236)" stroke-width="1" opacity="1" d="M 349.5 192 L 351 195.5 L 350 195.5 L 349.5 192 Z " /><path fill="rgb(236,236,236)" stroke="rgb(236,236,236)" stroke-width="1" opacity="1" d="M 293.5 193 L 294.5 195 L 295.5 193 L 296 194.5 L 294.5 197 L 293.5 193 Z " /><path fill="rgb(236,236,236)" stroke="rgb(236,236,236)" stroke-width="1" opacity="1" d="M 410.5 193 L 411 195 L 409 194.5 L 410.5 193 Z " /><path fill="rgb(236,236,236)" stroke="rgb(236,236,236)" stroke-width="1" opacity="1" d="M 410 196 Q 413 195 412 198 Q 409 199 410 196 Z " /><path fill="rgb(236,236,236)" stroke="rgb(236,236,236)" stroke-width="1" opacity="1" d="M 291.5 199 L 292 202.5 L 291 202.5 L 291.5 199 Z " /><path fill="rgb(236,236,236)" stroke="rgb(236,236,236)" stroke-width="1" opacity="1" d="M 412.5 199 L 414 209.5 L 413 210.5 L 413 217 Q 410 218.3 411 214.5 L 412 213.5 L 412 203.5 L 411 200.5 L 412.5 199 Z " /><path fill="rgb(236,236,236)" stroke="rgb(236,236,236)" stroke-width="1" opacity="1" d="M 459.5 201 L 471 201.5 L 459.5 202 L 459.5 201 Z " /><path fill="rgb(236,236,236)" stroke="rgb(236,236,236)" stroke-width="1" opacity="1" d="M 349.5 202 Q 351.8 202.8 351 206.5 L 350 206.5 L 349.5 202 Z " /><path fill="rgb(236,236,236)" stroke="rgb(236,236,236)" stroke-width="1" opacity="1" d="M 453.5 202 L 456 202.5 L 453.5 203 L 453.5 202 Z " /><path fill="rgb(236,236,236)" stroke="rgb(236,236,236)" stroke-width="1" opacity="1" d="M 474.5 202 L 480 203.5 L 477.5 204 L 474.5 203 L 474.5 202 Z " /><path fill="rgb(236,236,236)" stroke="rgb(236,236,236)" stroke-width="1" opacity="1" d="M 450.5 203 L 454 204.5 L 452.5 205 L 450.5 204 L 447 205.5 L 447.5 207 L 445.5 206 L 439.5 210 L 441.5 207 L 450.5 203 Z " /><path fill="rgb(236,236,236)" stroke="rgb(236,236,236)" stroke-width="1" opacity="1" d="M 481.5 204 L 481.5 206 L 483.5 205 Q 491 208 495 214.5 L 497 218.5 L 494 216.5 L 492.5 213 L 491 215.5 L 491.5 217 Q 488.8 215.8 491 214.5 L 490 212.5 Q 492.2 211.3 489.5 210 L 486.5 208 L 484.5 208 L 481.5 207 L 480 207.5 L 481.5 204 Z " /><path fill="rgb(236,236,236)" stroke="rgb(236,236,236)" stroke-width="1" opacity="1" d="M 290.5 205 L 291 215.5 L 290 215.5 L 290.5 205 Z " /><path fill="rgb(236,236,236)" stroke="rgb(236,236,236)" stroke-width="1" opacity="1" d="M 437.5 210 Q 440.5 211.5 437.5 213 L 436 212.5 L 436 214 L 434 214 L 434 216 L 432 216 Q 433.1 218.7 430.5 218 L 437.5 210 Z " /><path fill="rgb(236,236,236)" stroke="rgb(236,236,236)" stroke-width="1" opacity="1" d="M 437.5 214 L 436.5 216 L 435 215.5 L 437.5 214 Z " /><path fill="rgb(236,236,236)" stroke="rgb(236,236,236)" stroke-width="1" opacity="1" d="M 292.5 216 L 292 217.5 L 293 223.5 L 292 223.5 L 291 217.5 L 292.5 216 Z " /><path fill="rgb(236,236,236)" stroke="rgb(236,236,236)" stroke-width="1" opacity="1" d="M 350.5 218 L 351 220.5 L 350 220.5 L 350.5 218 Z " /><path fill="rgb(236,236,236)" stroke="rgb(236,236,236)" stroke-width="1" opacity="1" d="M 410.5 219 Q 412.8 218.3 412 220.5 L 410.5 219 Z " /><path fill="rgb(236,236,236)" stroke="rgb(236,236,236)" stroke-width="1" opacity="1" d="M 429.5 219 Q 432.5 220.5 429.5 222 L 427 223.5 L 424.5 229 L 424 227.5 L 429.5 219 Z " /><path fill="rgb(236,236,236)" stroke="rgb(236,236,236)" stroke-width="1" opacity="1" d="M 348.5 220 L 350 225 L 348 224.5 L 349 222.5 L 347 222.5 L 348.5 220 Z " /><path fill="rgb(236,236,236)" stroke="rgb(236,236,236)" stroke-width="1" opacity="1" d="M 497.5 220 L 497 221.5 L 497.5 223 L 499 222.5 L 498.5 225 L 496 224.5 L 496 222.5 L 497.5 220 Z " /><path fill="rgb(236,236,236)" stroke="rgb(236,236,236)" stroke-width="1" opacity="1" d="M 409.5 221 L 410.5 223 Q 407.7 223.7 409.5 221 Z " /><path fill="rgb(236,236,236)" stroke="rgb(236,236,236)" stroke-width="1" opacity="1" d="M 294.5 223 L 295 224.5 L 295 226.5 L 296 228.5 L 294 227.5 L 293 225.5 L 294.5 223 Z " /><path fill="rgb(236,236,236)" stroke="rgb(236,236,236)" stroke-width="1" opacity="1" d="M 407.5 226 L 409 226.5 L 407 227.5 Q 409.3 228.8 406.5 230 L 404 231.5 L 405 232.5 L 400.5 237 L 399 235.5 L 405.5 229 L 407 228.5 Q 404.8 227.3 407.5 226 Z " /><path fill="rgb(236,236,236)" stroke="rgb(236,236,236)" stroke-width="1" opacity="1" d="M 499.5 226 L 500 237.5 L 499 241 L 497 241.5 L 497.5 243 Q 494.3 241.3 498 239.5 L 499.5 226 Z " /><path fill="rgb(236,236,236)" stroke="rgb(236,236,236)" stroke-width="1" opacity="1" d="M 427.5 229 L 429 231.5 L 427 230.5 L 427.5 229 Z " /><path fill="rgb(236,236,236)" stroke="rgb(236,236,236)" stroke-width="1" opacity="1" d="M 296.5 230 L 299.5 233 L 300.5 232 L 302 232.5 L 300 233.5 L 302.5 235 L 304.5 234 L 304.5 235 L 303 235.5 L 306.5 238 L 308.5 237 L 311 238.5 L 309 239.5 L 314 241.5 L 312.5 242 Q 301 238.4 296.5 230 Z " /><path fill="rgb(236,236,236)" stroke="rgb(236,236,236)" stroke-width="1" opacity="1" d="M 344.5 230 L 347 230.5 Q 344.9 233.8 344.5 230 Z " /><path fill="rgb(236,236,236)" stroke="rgb(236,236,236)" stroke-width="1" opacity="1" d="M 423.5 230 L 426 231.5 L 424.5 231 L 423.5 230 Z " /><path fill="rgb(236,236,236)" stroke="rgb(236,236,236)" stroke-width="1" opacity="1" d="M 340.5 234 L 342.5 234 L 344 234.5 L 338.5 239 L 338.5 236 Q 339.8 238.3 341 235.5 L 340.5 234 Z " /><path fill="rgb(236,236,236)" stroke="rgb(236,236,236)" stroke-width="1" opacity="1" d="M 396.5 237 L 399 237.5 Q 397 242 395 238.5 L 396.5 237 Z " /><path fill="rgb(236,236,236)" stroke="rgb(236,236,236)" stroke-width="1" opacity="1" d="M 420.5 238 L 421 241.5 L 420 241.5 L 420.5 238 Z " /><path fill="rgb(236,236,236)" stroke="rgb(236,236,236)" stroke-width="1" opacity="1" d="M 393.5 239 Q 396.5 240.5 393.5 242 L 391.5 241 L 391.5 243 L 389.5 242 L 388.5 245 L 386.5 246 L 385 243.5 L 386 243.5 L 386.5 245 L 387.5 242 L 393.5 239 Z " /><path fill="rgb(236,236,236)" stroke="rgb(236,236,236)" stroke-width="1" opacity="1" d="M 318.5 240 L 320.5 243 Q 315.1 244.9 316 241.5 L 317.5 242 L 319 241.5 L 318.5 240 Z " /><path fill="rgb(236,236,236)" stroke="rgb(236,236,236)" stroke-width="1" opacity="1" d="M 327.5 241 L 328.5 243 L 323 242.5 L 327.5 241 Z " /><path fill="rgb(236,236,236)" stroke="rgb(236,236,236)" stroke-width="1" opacity="1" d="M 419.5 243 L 420 246.5 L 419 246.5 L 419.5 243 Z " /><path fill="rgb(236,236,236)" stroke="rgb(236,236,236)" stroke-width="1" opacity="1" d="M 495.5 243 L 496.5 245 L 494 244.5 L 495.5 243 Z " /><path fill="rgb(236,236,236)" stroke="rgb(236,236,236)" stroke-width="1" opacity="1" d="M 374.5 246 L 377 246.5 L 374 247.5 L 377.5 249 L 379.5 248 L 379.5 249 L 376.5 250 Q 374.3 247.3 369 247.5 L 374.5 246 Z " /><path fill="rgb(236,236,236)" stroke="rgb(236,236,236)" stroke-width="1" opacity="1" d="M 382.5 246 L 385 246.5 L 381.5 248 L 382.5 246 Z " /><path fill="rgb(236,236,236)" stroke="rgb(236,236,236)" stroke-width="1" opacity="1" d="M 495.5 246 L 492.5 250 L 490.5 250 L 488 251.5 L 489.5 252 L 491 251.5 L 483.5 256 L 483.5 255 L 487 253.5 L 485 252.5 L 491 248.5 L 490.5 247 Q 493 251.5 495.5 246 Z " /><path fill="rgb(236,236,236)" stroke="rgb(236,236,236)" stroke-width="1" opacity="1" d="M 363.5 248 Q 368.8 247.2 370.5 250 L 372.5 249 L 375 250.5 L 373.5 251 L 371.5 250 L 371.5 252 L 368.5 250 L 367 250.5 L 367.5 249 Q 362.5 250 363.5 248 Z " /><path fill="rgb(236,236,236)" stroke="rgb(236,236,236)" stroke-width="1" opacity="1" d="M 430.5 248 L 438 250.5 Q 429.3 251.8 425.5 258 Q 427.1 256.3 424 254.5 Q 427.1 252.7 425.5 251 Q 428 256.5 430.5 252 L 432 251.5 L 430.5 249 L 429 249.5 L 430.5 248 Z " /><path fill="rgb(236,236,236)" stroke="rgb(236,236,236)" stroke-width="1" opacity="1" d="M 350.5 249 L 359 249.5 L 350.5 250 L 350.5 249 Z " /><path fill="rgb(236,236,236)" stroke="rgb(236,236,236)" stroke-width="1" opacity="1" d="M 324.5 250 L 334 250.5 L 324.5 251 L 324.5 250 Z " /><path fill="rgb(236,236,236)" stroke="rgb(236,236,236)" stroke-width="1" opacity="1" d="M 418.5 250 L 419 252.5 L 418 252.5 L 418.5 250 Z " /><path fill="rgb(236,236,236)" stroke="rgb(236,236,236)" stroke-width="1" opacity="1" d="M 444.5 250 L 449 250.5 L 444.5 251 L 444.5 250 Z " /><path fill="rgb(236,236,236)" stroke="rgb(236,236,236)" stroke-width="1" opacity="1" d="M 315.5 251 L 319 251.5 L 315.5 252 L 315.5 251 Z " /><path fill="rgb(236,236,236)" stroke="rgb(236,236,236)" stroke-width="1" opacity="1" d="M 349.5 251 L 352 251.5 L 349.5 252 L 349.5 251 Z " /><path fill="rgb(236,236,236)" stroke="rgb(236,236,236)" stroke-width="1" opacity="1" d="M 353.5 251 L 356 251.5 L 353.5 252 L 353.5 251 Z " /><path fill="rgb(236,236,236)" stroke="rgb(236,236,236)" stroke-width="1" opacity="1" d="M 450.5 251 L 453 251.5 L 450.5 252 L 450.5 251 Z " /><path fill="rgb(236,236,236)" stroke="rgb(236,236,236)" stroke-width="1" opacity="1" d="M 308.5 252 L 314 252.5 L 308.5 253 L 308.5 252 Z " /><path fill="rgb(236,236,236)" stroke="rgb(236,236,236)" stroke-width="1" opacity="1" d="M 303.5 253 L 307 253.5 L 303.5 254 L 303.5 253 Z " /><path fill="rgb(236,236,236)" stroke="rgb(236,236,236)" stroke-width="1" opacity="1" d="M 460.5 253 L 462 253.5 L 459.5 255 L 460.5 253 Z " /><path fill="rgb(236,236,236)" stroke="rgb(236,236,236)" stroke-width="1" opacity="1" d="M 298.5 254 L 301 254.5 L 298.5 255 L 298.5 254 Z " /><path fill="rgb(236,236,236)" stroke="rgb(236,236,236)" stroke-width="1" opacity="1" d="M 360.5 254 L 363 254.5 L 357.5 256 L 357.5 255 L 360.5 254 Z " /><path fill="rgb(236,236,236)" stroke="rgb(236,236,236)" stroke-width="1" opacity="1" d="M 463.5 254 L 464 256 L 462 255.5 L 463.5 254 Z " /><path fill="rgb(236,236,236)" stroke="rgb(236,236,236)" stroke-width="1" opacity="1" d="M 294.5 255 L 297 255.5 L 294.5 256 L 294.5 255 Z " /><path fill="rgb(236,236,236)" stroke="rgb(236,236,236)" stroke-width="1" opacity="1" d="M 353.5 256 L 356 256.5 L 353.5 257 L 353.5 256 Z " /><path fill="rgb(236,236,236)" stroke="rgb(236,236,236)" stroke-width="1" opacity="1" d="M 465.5 256 L 469 256.5 L 465.5 257 L 465.5 256 Z " /><path fill="rgb(236,236,236)" stroke="rgb(236,236,236)" stroke-width="1" opacity="1" d="M 479.5 256 L 482 256.5 L 479.5 257 L 479.5 256 Z " /><path fill="rgb(236,236,236)" stroke="rgb(236,236,236)" stroke-width="1" opacity="1" d="M 288 257 L 290 257.5 L 288 258.5 L 288 257 Z " /><path fill="rgb(236,236,236)" stroke="rgb(236,236,236)" stroke-width="1" opacity="1" d="M 472.5 257 L 477 257.5 L 472.5 258 L 472.5 257 Z " /><path fill="rgb(236,236,236)" stroke="rgb(236,236,236)" stroke-width="1" opacity="1" d="M 344.5 258 L 345 260 L 338.5 262 L 338.5 261 L 344.5 258 Z " /><path fill="rgb(236,236,236)" stroke="rgb(236,236,236)" stroke-width="1" opacity="1" d="M 337.5 259 L 339 259.5 L 334.5 261 L 334.5 260 L 337.5 259 Z " /><path fill="rgb(236,236,236)" stroke="rgb(236,236,236)" stroke-width="1" opacity="1" d="M 424.5 259 L 424 260.5 L 422.5 264 L 422 262.5 L 424.5 259 Z " /><path fill="rgb(236,236,236)" stroke="rgb(236,236,236)" stroke-width="1" opacity="1" d="M 275.5 262 L 278 263.5 L 276.5 264 L 275.5 262 Z " /><path fill="rgb(236,236,236)" stroke="rgb(236,236,236)" stroke-width="1" opacity="1" d="M 335.5 262 L 337 262.5 L 322.5 271 L 321.5 269 Q 323 271.5 324.5 268 L 327 266.5 L 326.5 265 L 328.5 266 L 335.5 262 Z " /><path fill="rgb(236,236,236)" stroke="rgb(236,236,236)" stroke-width="1" opacity="1" d="M 420.5 264 L 422 266.5 L 421 266.5 L 420.5 264 Z " /><path fill="rgb(236,236,236)" stroke="rgb(236,236,236)" stroke-width="1" opacity="1" d="M 269.5 265 L 268.5 267 L 262.5 272 Q 261.2 269.8 260 272.5 L 260 274.5 Q 260.8 276.8 258.5 276 L 258.5 278 L 256.5 277 L 257.5 280 Q 256.3 277.8 255 280.5 L 255.5 282 L 253.5 280 L 249 281.5 L 258 273.5 L 256.5 276 L 260 273.5 Q 257.3 271.8 261.5 270 L 263 270.5 L 265.5 267 L 269.5 265 Z " /><path fill="rgb(236,236,236)" stroke="rgb(236,236,236)" stroke-width="1" opacity="1" d="M 320.5 271 L 314.5 278 Q 311.5 276.5 314.5 275 Q 316.2 277.7 318 273.5 L 317.5 272 Q 319 274.5 320.5 271 Z " /><path fill="rgb(236,236,236)" stroke="rgb(236,236,236)" stroke-width="1" opacity="1" d="M 419.5 274 L 420 280.5 L 419 280.5 L 419.5 274 Z " /><path fill="rgb(236,236,236)" stroke="rgb(236,236,236)" stroke-width="1" opacity="1" d="M 312.5 279 L 309.5 283 L 309.5 280 Q 311 282.5 312.5 279 Z " /><path fill="rgb(236,236,236)" stroke="rgb(236,236,236)" stroke-width="1" opacity="1" d="M 304.5 280 L 305.5 282 L 304.5 280 Z " /><path fill="rgb(236,236,236)" stroke="rgb(236,236,236)" stroke-width="1" opacity="1" d="M 251.5 282 L 247.5 287 Q 244 285 248.5 283 Q 250 285.5 251.5 282 Z " /><path fill="rgb(236,236,236)" stroke="rgb(236,236,236)" stroke-width="1" opacity="1" d="M 306.5 284 L 309 284.5 Q 306.9 287.8 306.5 284 Z " /><path fill="rgb(236,236,236)" stroke="rgb(236,236,236)" stroke-width="1" opacity="1" d="M 250.5 286 L 249.5 288 L 250.5 286 Z " /><path fill="rgb(236,236,236)" stroke="rgb(236,236,236)" stroke-width="1" opacity="1" d="M 245.5 287 L 245 288.5 L 244 290.5 L 245.5 293 Q 241.3 291.3 244 289.5 L 245.5 287 Z " /><path fill="rgb(236,236,236)" stroke="rgb(236,236,236)" stroke-width="1" opacity="1" d="M 306.5 287 L 305.5 289 L 306.5 287 Z " /><path fill="rgb(236,236,236)" stroke="rgb(236,236,236)" stroke-width="1" opacity="1" d="M 301.5 288 L 304 292.5 L 302 291.5 L 301.5 288 Z " /><path fill="rgb(236,236,236)" stroke="rgb(236,236,236)" stroke-width="1" opacity="1" d="M 241.5 294 L 242 296.5 L 240 297.5 L 241.5 294 Z " /><path fill="rgb(236,236,236)" stroke="rgb(236,236,236)" stroke-width="1" opacity="1" d="M 246.5 294 L 245.5 296 L 246.5 294 Z " /><path fill="rgb(236,236,236)" stroke="rgb(236,236,236)" stroke-width="1" opacity="1" d="M 302.5 294 L 303 296 L 301 295.5 L 302.5 294 Z " /><path fill="rgb(236,236,236)" stroke="rgb(236,236,236)" stroke-width="1" opacity="1" d="M 417.5 300 L 419 304.5 L 417.5 311 L 417.5 300 Z " /><path fill="rgb(236,236,236)" stroke="rgb(236,236,236)" stroke-width="1" opacity="1" d="M 299.5 302 L 300 305.5 L 299 305.5 L 299.5 302 Z " /><path fill="rgb(236,236,236)" stroke="rgb(236,236,236)" stroke-width="1" opacity="1" d="M 237.5 306 L 238 309.5 L 237 309.5 L 237.5 306 Z " /><path fill="rgb(236,236,236)" stroke="rgb(236,236,236)" stroke-width="1" opacity="1" d="M 298.5 307 L 299 315.5 L 298 315.5 L 298.5 307 Z " /><path fill="rgb(236,236,236)" stroke="rgb(236,236,236)" stroke-width="1" opacity="1" d="M 236.5 311 L 237 330.5 L 236 330.5 L 236.5 311 Z " /><path fill="rgb(236,236,236)" stroke="rgb(236,236,236)" stroke-width="1" opacity="1" d="M 416.5 313 L 417 317.5 L 416 317.5 L 416.5 313 Z " /><path fill="rgb(236,236,236)" stroke="rgb(236,236,236)" stroke-width="1" opacity="1" d="M 298.5 317 L 299 325.5 L 298 325.5 L 298.5 317 Z " /><path fill="rgb(236,236,236)" stroke="rgb(236,236,236)" stroke-width="1" opacity="1" d="M 415.5 319 L 416 322.5 L 415 322.5 L 415.5 319 Z " /><path fill="rgb(236,236,236)" stroke="rgb(236,236,236)" stroke-width="1" opacity="1" d="M 414.5 324 L 415 327.5 L 413.5 330 L 413 328.5 L 414.5 324 Z " /><path fill="rgb(236,236,236)" stroke="rgb(236,236,236)" stroke-width="1" opacity="1" d="M 299.5 327 L 300 329.5 L 298 328.5 L 299.5 327 Z " /><path fill="rgb(236,236,236)" stroke="rgb(236,236,236)" stroke-width="1" opacity="1" d="M 412.5 331 L 413.5 333 L 412.5 331 Z " /><path fill="rgb(236,236,236)" stroke="rgb(236,236,236)" stroke-width="1" opacity="1" d="M 237.5 332 L 238 335.5 L 237 335.5 L 237.5 332 Z " /><path fill="rgb(236,236,236)" stroke="rgb(236,236,236)" stroke-width="1" opacity="1" d="M 411.5 333 L 413 335.5 L 409 338.5 L 410 336 L 412 335.5 L 411.5 333 Z " /><path fill="rgb(236,236,236)" stroke="rgb(236,236,236)" stroke-width="1" opacity="1" d="M 301.5 334 L 305 341.5 L 302.5 342 L 301 340.5 L 302 337.5 L 301.5 334 Z " /><path fill="rgb(236,236,236)" stroke="rgb(236,236,236)" stroke-width="1" opacity="1" d="M 238.5 337 L 239 339.5 L 238 339.5 L 238.5 337 Z " /><path fill="rgb(236,236,236)" stroke="rgb(236,236,236)" stroke-width="1" opacity="1" d="M 407.5 342 L 406.5 344 L 407.5 342 Z " /><path fill="rgb(236,236,236)" stroke="rgb(236,236,236)" stroke-width="1" opacity="1" d="M 242.5 344 L 243 345.5 L 242 347.5 L 245.5 354 L 246.5 352 L 247 353.5 Q 245.5 356.5 244 353.5 L 241 346.5 L 242.5 344 Z " /><path fill="rgb(236,236,236)" stroke="rgb(236,236,236)" stroke-width="1" opacity="1" d="M 306.5 345 L 319 358.5 L 317.5 359 L 311.5 352 Q 309.3 352.8 310 350.5 L 307.5 347 L 305 348.5 Q 308.1 346.7 306.5 345 Z " /><path fill="rgb(236,236,236)" stroke="rgb(236,236,236)" stroke-width="1" opacity="1" d="M 405.5 345 L 404.5 347 L 405.5 345 Z " /><path fill="rgb(236,236,236)" stroke="rgb(236,236,236)" stroke-width="1" opacity="1" d="M 403.5 348 L 403.5 351 L 401 350.5 L 403.5 348 Z " /><path fill="rgb(236,236,236)" stroke="rgb(236,236,236)" stroke-width="1" opacity="1" d="M 406.5 349 L 408 351.5 L 405 351.5 L 406.5 349 Z " /><path fill="rgb(236,236,236)" stroke="rgb(236,236,236)" stroke-width="1" opacity="1" d="M 306.5 350 L 308 350.5 L 305.5 352 L 306.5 350 Z " /><path fill="rgb(236,236,236)" stroke="rgb(236,236,236)" stroke-width="1" opacity="1" d="M 397.5 355 L 400 355.5 L 396.5 357 L 392.5 360 L 395.5 356 L 397.5 355 Z " /><path fill="rgb(236,236,236)" stroke="rgb(236,236,236)" stroke-width="1" opacity="1" d="M 246.5 356 L 250.5 361 L 251.5 358 L 252 360.5 Q 250 364 248 359.5 L 246.5 356 Z " /><path fill="rgb(236,236,236)" stroke="rgb(236,236,236)" stroke-width="1" opacity="1" d="M 320.5 359 L 325 362.5 L 324.5 364 L 323.5 362 L 321 363.5 L 322 361.5 L 320.5 359 Z " /><path fill="rgb(236,236,236)" stroke="rgb(236,236,236)" stroke-width="1" opacity="1" d="M 390.5 360 L 389.5 362 L 390.5 360 Z " /><path fill="rgb(236,236,236)" stroke="rgb(236,236,236)" stroke-width="1" opacity="1" d="M 253.5 362 Q 255.8 361.3 255 363.5 L 255.5 365 L 253.5 362 Z " /><path fill="rgb(236,236,236)" stroke="rgb(236,236,236)" stroke-width="1" opacity="1" d="M 387.5 362 L 385.5 365 L 379.5 367 L 379.5 366 L 387.5 362 Z " /><path fill="rgb(236,236,236)" stroke="rgb(236,236,236)" stroke-width="1" opacity="1" d="M 251.5 363 L 260 370.5 L 259 368.5 L 264 372.5 L 263.5 374 L 269 378.5 L 266.5 377 L 262 373.5 L 262.5 372 L 260.5 373 L 251.5 363 Z " /><path fill="rgb(236,236,236)" stroke="rgb(236,236,236)" stroke-width="1" opacity="1" d="M 330.5 365 L 337 367.5 L 334.5 368 L 330.5 366 L 330.5 365 Z " /><path fill="rgb(236,236,236)" stroke="rgb(236,236,236)" stroke-width="1" opacity="1" d="M 372.5 368 L 376 369.5 L 374.5 369 Q 371.5 369.5 372.5 368 Z " /><path fill="rgb(236,236,236)" stroke="rgb(236,236,236)" stroke-width="1" opacity="1" d="M 343 369 L 346 369.5 L 343.5 371 L 343 369 Z " /><path fill="rgb(236,236,236)" stroke="rgb(236,236,236)" stroke-width="1" opacity="1" d="M 347.5 370 L 366 370.5 L 352.5 371 L 351.5 372 L 347.5 371 L 347.5 370 Z " /><path fill="rgb(236,236,236)" stroke="rgb(236,236,236)" stroke-width="1" opacity="1" d="M 272.5 376 L 272.5 380 L 278.5 383 L 280 382.5 L 279.5 384 L 286 386.5 L 284.5 387 L 270 379.5 L 272 378.5 Q 269.8 377.3 272.5 376 Z " /><path fill="rgb(236,236,236)" stroke="rgb(236,236,236)" stroke-width="1" opacity="1" d="M 376.5 376 L 381 377.5 L 377.5 378 L 376.5 376 Z " /><path fill="rgb(236,236,236)" stroke="rgb(236,236,236)" stroke-width="1" opacity="1" d="M 382.5 376 L 387 376.5 L 382.5 377 L 382.5 376 Z " /><path fill="rgb(236,236,236)" stroke="rgb(236,236,236)" stroke-width="1" opacity="1" d="M 398.5 376 L 402 376.5 L 398.5 377 L 398.5 376 Z " /><path fill="rgb(236,236,236)" stroke="rgb(236,236,236)" stroke-width="1" opacity="1" d="M 412.5 378 L 411 380.5 L 416.5 387 L 408 379.5 L 409.5 380 L 412.5 378 Z " /><path fill="rgb(236,236,236)" stroke="rgb(236,236,236)" stroke-width="1" opacity="1" d="M 415.5 378 L 414.5 380 L 415.5 378 Z " /><path fill="rgb(236,236,236)" stroke="rgb(236,236,236)" stroke-width="1" opacity="1" d="M 365.5 379 L 367 379.5 L 363.5 381 L 363.5 380 L 365.5 379 Z " /><path fill="rgb(236,236,236)" stroke="rgb(236,236,236)" stroke-width="1" opacity="1" d="M 368.5 379 L 369.5 381 Q 366.7 381.7 368.5 379 Z " /><path fill="rgb(236,236,236)" stroke="rgb(236,236,236)" stroke-width="1" opacity="1" d="M 356.5 384 L 359 384.5 L 343.5 389 L 343.5 388 L 351.5 385 L 353.5 385 L 356.5 384 Z " /><path fill="rgb(236,236,236)" stroke="rgb(236,236,236)" stroke-width="1" opacity="1" d="M 326.5 386 L 329 386.5 L 326.5 387 L 326.5 386 Z " /><path fill="rgb(236,236,236)" stroke="rgb(236,236,236)" stroke-width="1" opacity="1" d="M 418.5 387 L 419 389.5 L 418.5 391 L 417 388.5 L 418.5 387 Z " /><path fill="rgb(236,236,236)" stroke="rgb(236,236,236)" stroke-width="1" opacity="1" d="M 296.5 388 L 295.5 390 L 293 389.5 L 296.5 388 Z " /><path fill="rgb(236,236,236)" stroke="rgb(236,236,236)" stroke-width="1" opacity="1" d="M 338.5 389 L 342 389.5 L 331.5 392 L 324.5 392 L 324.5 391 L 331.5 391 L 338.5 389 Z " /><path fill="rgb(236,236,236)" stroke="rgb(236,236,236)" stroke-width="1" opacity="1" d="M 298.5 390 L 301 390.5 L 298.5 391 L 298.5 390 Z " /><path fill="rgb(236,236,236)" stroke="rgb(236,236,236)" stroke-width="1" opacity="1" d="M 302.5 391 L 310 391.5 L 302.5 392 L 302.5 391 Z " /><path fill="rgb(254,254,254)" stroke="rgb(254,254,254)" stroke-width="1" opacity="1" d="M 346.5 160 L 349.5 161 L 350.5 160 L 360 160 Q 358.8 163 362.5 162 L 364 161.5 L 362.5 163 L 349 163.5 L 352 164 L 352.5 166 L 359.5 166 Q 360.8 168.3 362 165.5 L 360 164.5 L 361.5 164 L 362.5 165 L 369 165 Q 367.3 160.9 371.5 162 L 371.5 164 L 374.5 163 L 375 165 Q 380 163.8 381.5 167 Q 382.7 164.8 384 167.5 Q 384.9 170.9 379.5 169 L 377 170.5 L 379.5 171 L 383.5 170 Q 387.8 171.8 385 173.5 L 384.5 175 L 382 174.5 Q 382.9 171.5 378.5 173 L 376.5 172 L 374 173.5 Q 376.3 172.3 373.5 171 L 372.5 174 L 367.5 172 L 366.5 174 L 368 174.5 L 365.5 176 L 364 175.5 L 363.5 177 L 362 176.5 L 361.5 178 L 360 177.5 L 359.5 179 L 357.5 177 L 355 177.5 Q 354.3 180.1 357 179 L 357 182 L 354.5 181 L 353.5 183 L 352 180.5 L 355 179.5 L 354 177.5 L 357.5 176 L 359.5 177 Q 361.7 171.7 368.5 171 L 371.5 172 L 371.5 171 L 365.5 169 L 360.5 173 L 360 171.5 L 361 169.5 L 359.5 168 L 352 168 Q 353.3 165 349.5 166 L 344.5 164 L 344.5 165 L 351 167.5 L 347.5 168 L 344.5 167 L 342.5 168 L 334.5 165 L 335.5 167 L 338 167.5 L 333.5 168 L 332.5 165 L 331 164.5 L 337.5 161 L 339.5 162 L 341.5 161 L 343.5 161 L 346.5 160 Z M 342 163 L 337 164 L 337 165 Q 342 166 343 164 L 342 163 Z M 343 165 L 344 167 Q 345 164 343 165 Z M 371 165 L 372 167 Q 374 166 373 169 L 371 170 L 374 170 L 375 168 L 378 169 L 379 167 L 371 165 Z M 365 166 L 363 169 L 368 167 L 365 166 Z M 368 167 L 368 169 L 370 168 L 368 167 Z M 382 171 L 382 172 L 384 172 L 382 171 Z " /><path fill="rgb(254,254,254)" stroke="rgb(254,254,254)" stroke-width="1" opacity="1" d="M 366.5 161 L 368 164 L 364 163.5 L 366.5 161 Z " /><path fill="rgb(254,254,254)" stroke="rgb(254,254,254)" stroke-width="1" opacity="1" d="M 325.5 164 L 327 164.5 L 325 165.5 L 327 166 L 326.5 168 L 323.5 166 L 322 166.5 Q 321.2 163.9 324.5 165 L 325.5 164 Z " /><path fill="rgb(254,254,254)" stroke="rgb(254,254,254)" stroke-width="1" opacity="1" d="M 328.5 164 L 330 164 L 330 168 L 328 167.5 L 329 165.5 L 328.5 164 Z " /><path fill="rgb(254,254,254)" stroke="rgb(254,254,254)" stroke-width="1" opacity="1" d="M 320.5 166 L 321 167.5 L 320 172 Q 315.5 170.5 317 175 L 319 175.5 L 317.5 176 L 315.5 176 L 312 174.5 Q 313.3 171.8 314.5 174 L 316 173.5 L 314 170 L 319 171 Q 318 167.2 320.5 166 Z " /><path fill="rgb(254,254,254)" stroke="rgb(254,254,254)" stroke-width="1" opacity="1" d="M 385.5 168 L 387 170.5 L 386 170.5 L 385.5 168 Z " /><path fill="rgb(254,254,254)" stroke="rgb(254,254,254)" stroke-width="1" opacity="1" d="M 388.5 171 L 390.5 172 L 392 171.5 L 391 174.5 L 393.5 176 L 395 175.5 Q 394.3 177.8 396.5 177 L 396.5 178 L 390 176 L 389.5 174 Q 388.3 176.3 387 173.5 L 388.5 171 Z " /><path fill="rgb(254,254,254)" stroke="rgb(254,254,254)" stroke-width="1" opacity="1" d="M 310.5 172 L 311 173.5 L 310.5 176 L 306 175.5 L 310 173.5 L 310.5 172 Z " /><path fill="rgb(254,254,254)" stroke="rgb(254,254,254)" stroke-width="1" opacity="1" d="M 393.5 172 L 392.5 174 L 393.5 172 Z " /><path fill="rgb(254,254,254)" stroke="rgb(254,254,254)" stroke-width="1" opacity="1" d="M 308.5 177 L 305.5 181 L 303 181.5 L 306.5 182 L 310.5 177 L 312 180 L 306.5 183 L 303.5 183 L 302 182.5 L 304 191.5 L 303 191.5 L 302.5 189 L 301.5 191 L 300.5 189 L 299.5 191 L 296 189.5 L 298 188.5 Q 295.5 187 299 185.5 Q 298.3 183.3 300.5 184 L 300.5 182 L 303 180.5 L 303.5 179 L 306 180 Q 304.9 177.3 307.5 178 L 308.5 177 Z M 299 187 L 299 189 L 302 189 Q 303 185 299 187 Z " /><path fill="rgb(254,254,254)" stroke="rgb(254,254,254)" stroke-width="1" opacity="1" d="M 398.5 177 L 401.5 181 L 399.5 181 Q 397.3 181.8 398 179.5 L 398.5 177 Z " /><path fill="rgb(254,254,254)" stroke="rgb(254,254,254)" stroke-width="1" opacity="1" d="M 311.5 181 L 312 182.5 L 310 183.5 L 311.5 181 Z " /><path fill="rgb(254,254,254)" stroke="rgb(254,254,254)" stroke-width="1" opacity="1" d="M 403.5 182 L 407 187.5 L 404 185.5 L 403.5 182 Z " /><path fill="rgb(254,254,254)" stroke="rgb(254,254,254)" stroke-width="1" opacity="1" d="M 346.5 184 L 348.5 184 L 350 184.5 Q 346.3 186.3 349.5 188 L 351 188.5 L 349 192.5 L 349 194.5 L 350 199.5 L 349.5 202 L 347.5 201 L 347 203.5 Q 350.8 205.3 347.5 207 L 345 208.5 L 345.5 210 L 348 208.5 L 347 212.5 L 348 215.5 L 347.5 217 L 350.5 216 L 350.5 217 L 347 218.5 L 347.5 220 Q 345.3 219.3 346 221.5 L 345 224.5 L 346 224.5 Q 345.3 222.3 347.5 223 L 347.5 225 L 349 225.5 L 347 226 Q 348 229 345 228 L 344 222.5 L 345 220.5 L 344.5 219 Q 346.8 219.8 346 217.5 Q 343.3 216.4 344 213 Q 347 214 346 211 Q 342.5 212.1 344 204.5 L 345 202.5 L 344 200.5 L 346 200.5 L 344 193.5 L 349 189.5 L 347.5 189 L 344.5 191 L 345 189.5 L 344 185.5 L 345 185.5 L 346.5 188 L 347 186.5 L 346.5 184 Z M 346 193 L 345 197 L 346 197 L 346 193 Z M 348 196 L 347 200 L 348 200 L 348 196 Z M 346 204 L 345 207 L 346 207 L 346 204 Z M 346 214 Q 344 217 347 216 L 346 214 Z " /><path fill="rgb(254,254,254)" stroke="rgb(254,254,254)" stroke-width="1" opacity="1" d="M 351 184 L 354 184.5 L 352 185 Q 353.1 187.7 350.5 187 L 351 185.5 L 351 184 Z " /><path fill="rgb(254,254,254)" stroke="rgb(254,254,254)" stroke-width="1" opacity="1" d="M 295.5 191 L 294.5 193 L 295.5 191 Z " /><path fill="rgb(254,254,254)" stroke="rgb(254,254,254)" stroke-width="1" opacity="1" d="M 293.5 196 L 296 197 L 296 201 Q 293 200 294 203 Q 297.7 201.7 296 207.5 L 295 207.5 L 294.5 204 Q 291.8 205.2 294 206.5 L 292 210.5 L 294 211.5 L 295.5 209 L 296 211.5 Q 294 215.2 292 213.5 L 293.5 216 Q 295.8 216.8 295 214.5 L 296 214.5 L 295 216.5 L 296 220 Q 293.3 218.9 294 221.5 L 296 221.5 Q 296.7 224.5 293 223 L 292 217.5 L 292.5 216 Q 289.8 216.6 291 210.5 L 292 208.5 L 292 206.5 L 291 203.5 L 293 203 L 292 198.5 L 293.5 199 L 295 198.5 L 293.5 196 Z M 294 217 L 295 219 Q 296 216 294 217 Z " /><path fill="rgb(254,254,254)" stroke="rgb(254,254,254)" stroke-width="1" opacity="1" d="M 456.5 202 L 464.5 204 Q 465.3 201.3 469.5 202 L 472 203 L 472.5 205 L 473.5 202 Q 476.3 203.3 474 204.5 L 473 206.5 L 475 207 L 476.5 204 L 478.5 205 L 480 204.5 L 479 206.5 L 479.5 208 L 477.5 207 L 476.5 208 L 466.5 208 L 464.5 207 Q 463.2 209.2 458.5 208 L 455.5 207 Q 454.3 209.2 449.5 208 L 448.5 206 L 451.5 205 L 451.5 206 L 450 206.5 L 452.5 207 L 460 205.5 L 455.5 204 L 453.5 204 L 452 203.5 L 456.5 202 Z M 462 204 L 462 205 L 464 205 L 462 204 Z M 467 204 L 467 205 L 470 205 L 467 204 Z M 461 206 L 461 207 L 464 207 L 461 206 Z M 467 206 L 467 207 L 471 207 L 467 206 Z " /><path fill="rgb(254,254,254)" stroke="rgb(254,254,254)" stroke-width="1" opacity="1" d="M 446.5 206 L 446 207.5 L 445 213 Q 448.3 214.3 447 209.5 L 448 209.5 Q 449 215 445.5 216 L 441 215.5 L 444 215 Q 445.3 212 441.5 213 L 439.5 216 L 438 213.5 L 441.5 209 L 441.5 211 Q 443.8 211.8 443 209.5 L 444 207 L 446.5 206 Z " /><path fill="rgb(254,254,254)" stroke="rgb(254,254,254)" stroke-width="1" opacity="1" d="M 349.5 207 L 351 209.5 L 350 212.5 L 349.5 214 L 349 209.5 L 349.5 207 Z " /><path fill="rgb(254,254,254)" stroke="rgb(254,254,254)" stroke-width="1" opacity="1" d="M 483 208 L 488 208 L 488 210.5 L 490 210.5 L 491 213.5 L 489 214.5 L 492 216.5 L 492.5 215 L 493.5 218 L 495 217.5 L 496 223.5 L 494.5 223 L 492.5 222 Q 491.4 224.8 488 224 L 489 219.5 L 488 216.5 L 488 214.5 L 489 212.5 L 484 212 L 483 208 Z M 490 216 Q 488 219 491 218 L 490 216 Z M 492 218 L 491 220 L 495 222 L 495 220 L 492 218 Z M 489 221 Q 488 224 491 223 Q 492 220 489 221 Z " /><path fill="rgb(254,254,254)" stroke="rgb(254,254,254)" stroke-width="1" opacity="1" d="M 437.5 211 L 437 212.5 L 436.5 215 L 436 212.5 L 437.5 211 Z " /><path fill="rgb(254,254,254)" stroke="rgb(254,254,254)" stroke-width="1" opacity="1" d="M 431.5 218 L 432 220 L 430 219.5 L 431.5 218 Z " /><path fill="rgb(254,254,254)" stroke="rgb(254,254,254)" stroke-width="1" opacity="1" d="M 430.5 221 L 430 222.5 Q 431.1 225.8 428.5 225 L 429 226.5 L 427.5 229 Q 425.3 228.3 426 230.5 L 426.5 232 L 425 229.5 L 428 224.5 L 427.5 223 L 430.5 221 Z " /><path fill="rgb(254,254,254)" stroke="rgb(254,254,254)" stroke-width="1" opacity="1" d="M 295 224 Q 299.1 222.7 298 226 L 296 226.5 L 299 227 L 300.5 230 L 301 228.5 L 300 226 L 302 225.5 L 299 224.5 L 302.5 224 L 304 226.5 L 302 226.5 L 301.5 232 L 299.5 231 Q 297.8 233.7 296 229.5 L 295 224 Z " /><path fill="rgb(254,254,254)" stroke="rgb(254,254,254)" stroke-width="1" opacity="1" d="M 407.5 227 L 406.5 229 L 407.5 227 Z " /><path fill="rgb(254,254,254)" stroke="rgb(254,254,254)" stroke-width="1" opacity="1" d="M 430.5 227 L 431.5 229 Q 428.7 229.7 430.5 227 Z " /><path fill="rgb(254,254,254)" stroke="rgb(254,254,254)" stroke-width="1" opacity="1" d="M 498.5 227 L 498 228.5 L 499 234.5 L 496 232.5 L 496 230.5 L 498.5 227 Z " /><path fill="rgb(254,254,254)" stroke="rgb(254,254,254)" stroke-width="1" opacity="1" d="M 303.5 228 L 304 232 L 306 232 Q 304.5 235.7 307.5 235 L 307.5 233 L 311.5 232 L 312 234.5 L 311 236.5 L 312 238.5 L 310 239.5 L 311 237 L 307 236 Q 308.1 238.7 305.5 238 L 304 235.5 L 305 233.5 L 302.5 235 Q 299.9 235.7 301 233 L 303 233 L 303.5 228 Z M 311 234 L 309 236 L 311 236 L 311 234 Z " /><path fill="rgb(254,254,254)" stroke="rgb(254,254,254)" stroke-width="1" opacity="1" d="M 428.5 230 L 432 231.5 L 429.5 232 L 428.5 230 Z " /><path fill="rgb(254,254,254)" stroke="rgb(254,254,254)" stroke-width="1" opacity="1" d="M 328.5 232 L 331 232.5 L 328.5 233 L 328.5 232 Z " /><path fill="rgb(254,254,254)" stroke="rgb(254,254,254)" stroke-width="1" opacity="1" d="M 339.5 232 L 341.5 233 L 344.5 232 L 344.5 233 L 340 234.5 L 340.5 236 Q 339.2 233.7 338 236.5 Q 339.1 239.8 336.5 239 L 330.5 242 L 327.5 241 L 321.5 243 L 321.5 242 Q 323.5 239 329.5 240 L 332.5 237 Q 336.3 237.8 337 235.5 L 337.5 233 L 338.5 235 L 339.5 232 Z " /><path fill="rgb(254,254,254)" stroke="rgb(254,254,254)" stroke-width="1" opacity="1" d="M 423.5 232 L 424 236.5 L 423 238.5 L 423 240.5 Q 422.4 247.1 425.5 250 L 427.5 248 L 430 248.5 L 429 250.5 L 431 250.5 L 428.5 254 L 427.5 249 L 426.5 252 L 424.5 251 L 424 253.5 L 425 258.5 L 422.5 260 Q 420.8 256.3 419 259.5 L 422 263.5 L 420.5 264 L 419 263.5 L 420 265.5 L 419.5 267 Q 422.1 266.3 421 269 Q 418.3 267.9 419 270.5 L 420 273.5 L 418.5 277 L 418 272.5 L 418 270.5 L 419 267.5 L 418 263.5 L 419 261.5 L 418 259.5 L 419 257.5 L 418 253 Q 421 254.3 420 250.5 L 419 247 Q 421.7 248.1 421 245.5 L 420 242.5 L 422 242.5 L 421 239.5 L 423 235.5 L 423.5 232 Z M 423 247 L 420 248 L 422 251 L 423 249 L 423 251 L 424 251 L 423 247 Z M 423 252 L 422 255 L 423 255 L 423 252 Z M 421 254 L 419 257 L 421 257 L 421 254 Z " /><path fill="rgb(254,254,254)" stroke="rgb(254,254,254)" stroke-width="1" opacity="1" d="M 496.5 235 Q 499.5 236.5 496.5 238 L 496.5 235 Z " /><path fill="rgb(254,254,254)" stroke="rgb(254,254,254)" stroke-width="1" opacity="1" d="M 313.5 240 Q 316.8 238.9 316 241.5 L 314.5 241 L 313.5 240 Z " /><path fill="rgb(254,254,254)" stroke="rgb(254,254,254)" stroke-width="1" opacity="1" d="M 317.5 240 L 318.5 242 Q 315.7 242.7 317.5 240 Z " /><path fill="rgb(254,254,254)" stroke="rgb(254,254,254)" stroke-width="1" opacity="1" d="M 488.5 240 L 490.5 240 L 492 240.5 L 489.5 242 L 488.5 240 Z " /><path fill="rgb(254,254,254)" stroke="rgb(254,254,254)" stroke-width="1" opacity="1" d="M 495.5 240 L 497 242.5 L 494 244.5 L 495 246.5 L 492 248 L 491.5 246 L 487 249.5 L 488.5 252 L 486 251.5 Q 486.8 248.9 483.5 250 L 484.5 248 L 486.5 248 L 489 247.5 L 488 244 L 492.5 243 Q 493.8 245.3 495 242.5 L 495.5 240 Z " /><path fill="rgb(254,254,254)" stroke="rgb(254,254,254)" stroke-width="1" opacity="1" d="M 380.5 245 L 383 245.5 L 380 246 Q 381.1 248.7 378.5 248 L 377.5 246 Q 379 248.5 380.5 245 Z " /><path fill="rgb(254,254,254)" stroke="rgb(254,254,254)" stroke-width="1" opacity="1" d="M 368.5 248 L 371 248.5 L 368.5 249 L 368.5 248 Z " /><path fill="rgb(254,254,254)" stroke="rgb(254,254,254)" stroke-width="1" opacity="1" d="M 435.5 248 Q 440.3 246.7 439 250 Q 435.2 250.8 435.5 248 Z " /><path fill="rgb(254,254,254)" stroke="rgb(254,254,254)" stroke-width="1" opacity="1" d="M 441.5 248 Q 447 246.5 448.5 249 L 450 248.5 L 449.5 251 L 445.5 249 L 440.5 250 L 441.5 248 Z " /><path fill="rgb(254,254,254)" stroke="rgb(254,254,254)" stroke-width="1" opacity="1" d="M 452.5 248 Q 457 247 458 249.5 L 456.5 253 Q 454.3 253.8 455 251.5 L 452.5 251 Q 450.3 251.8 451 249.5 L 452.5 248 Z M 454 249 L 456 251 L 457 251 L 454 249 Z " /><path fill="rgb(254,254,254)" stroke="rgb(254,254,254)" stroke-width="1" opacity="1" d="M 459.5 248 L 462.5 249 L 464 248.5 L 463 250.5 L 463.5 252 L 459.5 253 L 459.5 250 L 461.5 251 L 460.5 249 L 459.5 248 Z " /><path fill="rgb(254,254,254)" stroke="rgb(254,254,254)" stroke-width="1" opacity="1" d="M 480.5 248 L 482 251 Q 486.1 249.3 485 253.5 L 478.5 257 L 476.5 256 L 473.5 257 L 470.5 256 L 468.5 256 Q 462.2 257.9 464 253 L 480 254 L 481 251.5 L 480.5 248 Z M 484 252 L 481 254 L 484 254 L 484 252 Z " /><path fill="rgb(254,254,254)" stroke="rgb(254,254,254)" stroke-width="1" opacity="1" d="M 359.5 249 L 362 250.5 L 361 252.5 L 362.5 252 L 366 250.5 L 364.5 250 L 363 250.5 Q 362.2 247.9 365.5 249 L 369.5 251 L 371.5 250 L 370.5 252 L 368.5 251 L 367.5 253 L 365.5 252 L 361.5 254 L 360 253.5 L 359.5 255 L 357.5 255 L 352.5 257 Q 351 254.5 349.5 258 L 345.5 257 Q 343.8 260.1 342 258.5 Q 342.8 260.8 340.5 260 L 339 260.5 Q 338.3 256.8 340.5 256 L 342.5 257 L 343.5 255 L 336 255.5 L 338 256.5 L 333 257.5 L 337 259.5 L 335.5 259 Q 333.3 258.3 334 260.5 L 335 262.5 L 332.5 263 L 329 262 Q 327.9 264.7 330.5 264 L 330.5 265 L 327.5 266 L 327 264.5 L 329 260.5 L 328 258.5 L 331 259.5 L 329.5 257 L 328 256.5 L 330 255.5 L 320.5 255 L 318.5 256 L 313.5 255 L 311.5 256 L 309.5 254 L 307 255.5 Q 306.3 253.3 308.5 254 L 311.5 253 L 311.5 255 Q 313.8 255.8 313 253.5 L 315.5 252 L 319 253 L 319.5 251 L 323.5 252 Q 324.7 249.7 329.5 251 Q 330.8 253.2 335.5 252 L 335.5 251 L 334 250.5 L 335.5 250 Q 337.3 252.7 343.5 251 L 345.5 250 L 348.5 251 L 350 250.5 Q 348.6 253.1 344 252.5 L 353.5 253 L 359.5 249 Z M 358 251 L 358 252 L 360 252 L 358 251 Z M 322 253 L 322 254 L 332 254 L 322 253 Z M 337 253 L 337 254 L 344 254 L 337 253 Z M 355 253 L 355 254 L 357 254 L 355 253 Z M 333 254 L 334 256 L 336 255 L 333 254 Z M 345 254 L 345 255 L 351 255 L 345 254 Z M 331 256 Q 331 260 333 257 L 331 256 Z M 333 260 L 331 262 L 333 262 L 333 260 Z " /><path fill="rgb(254,254,254)" stroke="rgb(254,254,254)" stroke-width="1" opacity="1" d="M 301.5 254 L 304.5 255 L 306 255.5 L 304.5 256 L 303.5 255 L 299.5 259 L 296 259 Q 297.3 256 293.5 257 L 293.5 256 L 297.5 255 L 299.5 256 L 301.5 254 Z " /><path fill="rgb(254,254,254)" stroke="rgb(254,254,254)" stroke-width="1" opacity="1" d="M 290.5 257 L 292 259.5 L 290.5 262 L 293.5 261 L 293.5 263 L 295.5 262 L 294.5 264 L 290.5 263 L 288.5 264 L 286.5 264 Q 280.6 266.1 282 261.5 L 280.5 262 L 279 262.5 L 281 263.5 L 275.5 267 L 272 267 L 272 264 L 277.5 264 L 278 262.5 L 281.5 260 L 285.5 263 L 285 261.5 L 284 259.5 L 287.5 258 L 287 259.5 L 287.5 262 L 289.5 259 L 291 259.5 L 290.5 257 Z " /><path fill="rgb(254,254,254)" stroke="rgb(254,254,254)" stroke-width="1" opacity="1" d="M 301.5 263 L 304 263.5 L 301.5 264 L 301.5 263 Z " /><path fill="rgb(254,254,254)" stroke="rgb(254,254,254)" stroke-width="1" opacity="1" d="M 320.5 264 L 323.5 265 L 326 264 L 323.5 269 L 322.5 267 L 320 268.5 L 320.5 266 L 322 266.5 Q 322.8 264.3 320.5 265 L 320.5 264 Z " /><path fill="rgb(254,254,254)" stroke="rgb(254,254,254)" stroke-width="1" opacity="1" d="M 270.5 265 L 271 266.5 L 270 267.5 L 271.5 270 L 269 269 L 267.5 272 Q 263.1 270.5 264 273.5 L 263 273.5 L 263 271 L 268 271 L 268 268.5 L 267.5 267 Q 271 268 270.5 265 Z " /><path fill="rgb(254,254,254)" stroke="rgb(254,254,254)" stroke-width="1" opacity="1" d="M 277.5 271 L 280 271.5 L 277.5 272 L 277.5 271 Z " /><path fill="rgb(254,254,254)" stroke="rgb(254,254,254)" stroke-width="1" opacity="1" d="M 314.5 272 L 317 272.5 L 315.5 276 L 315.5 274 Q 311.8 272.8 313 276.5 Q 315.8 278.2 311.5 280 Q 307.1 281.5 308 278.5 L 310.5 275 L 314.5 272 Z " /><path fill="rgb(254,254,254)" stroke="rgb(254,254,254)" stroke-width="1" opacity="1" d="M 259.5 273 L 257.5 276 L 257 274 L 259.5 273 Z " /><path fill="rgb(254,254,254)" stroke="rgb(254,254,254)" stroke-width="1" opacity="1" d="M 262.5 275 Q 264.8 274.3 264 276.5 L 263.5 279 L 260.5 280 L 258 279.5 L 260.5 276 L 262.5 275 Z " /><path fill="rgb(254,254,254)" stroke="rgb(254,254,254)" stroke-width="1" opacity="1" d="M 250.5 281 L 254 281.5 L 250.5 282 L 250.5 281 Z " /><path fill="rgb(254,254,254)" stroke="rgb(254,254,254)" stroke-width="1" opacity="1" d="M 306.5 281 L 308.5 282 L 310 281.5 L 307.5 285 L 306.5 283 L 306 285.5 Q 308.2 286.8 305.5 288 L 304 283.5 L 306.5 281 Z " /><path fill="rgb(254,254,254)" stroke="rgb(254,254,254)" stroke-width="1" opacity="1" d="M 418.5 281 L 419 286.5 L 418 286.5 L 418.5 281 Z " /><path fill="rgb(254,254,254)" stroke="rgb(254,254,254)" stroke-width="1" opacity="1" d="M 255.5 282 L 255 285.5 L 256 287.5 L 254.5 288 L 252.5 288 Q 249.9 288.8 251 285.5 L 249.5 283 L 253.5 283 L 255.5 282 Z " /><path fill="rgb(254,254,254)" stroke="rgb(254,254,254)" stroke-width="1" opacity="1" d="M 246.5 287 L 246.5 289 L 248 289.5 L 245 290 L 246.5 287 Z " /><path fill="rgb(254,254,254)" stroke="rgb(254,254,254)" stroke-width="1" opacity="1" d="M 297.5 288 Q 299.3 291.1 301 289.5 L 302 292.5 L 301 295.5 L 302 296.5 L 299 301.5 L 298 303.5 L 298 307.5 L 297.5 310 L 296 304.5 L 296 302.5 Q 295.2 299.5 299 301 L 299 298.5 L 298 298.5 L 297.5 300 L 296 297 L 299 296.5 L 297 292.5 L 298 289.5 L 297 289.5 L 296.5 291 L 296 289.5 L 297.5 288 Z " /><path fill="rgb(254,254,254)" stroke="rgb(254,254,254)" stroke-width="1" opacity="1" d="M 418.5 288 L 419 295.5 L 418 295.5 L 418.5 288 Z " /><path fill="rgb(254,254,254)" stroke="rgb(254,254,254)" stroke-width="1" opacity="1" d="M 243.5 291 L 245.5 291 Q 249.7 289.9 248 294 L 246 293.5 L 246.5 292 Q 243.9 291.2 245 294.5 L 243 297.5 Q 245.5 299 242 300.5 L 241 302.5 L 241.5 304 Q 240.3 301.8 239 304.5 L 239.5 306 Q 237.3 306.8 238 304.5 L 241 300.5 L 240.5 299 L 242 299.5 L 243 296.5 L 242.5 295 L 244 294.5 L 243.5 291 Z " /><path fill="rgb(254,254,254)" stroke="rgb(254,254,254)" stroke-width="1" opacity="1" d="M 245 296 Q 248.3 294.7 247 299.5 L 246.5 301 Q 249.1 300.3 248 303 L 243 304 Q 242 299.8 245 300.5 L 245 296 Z M 246 301 L 244 303 L 246 303 L 246 301 Z " /><path fill="rgb(254,254,254)" stroke="rgb(254,254,254)" stroke-width="1" opacity="1" d="M 418.5 305 L 419 384.5 L 418.5 389 L 416.5 385 L 414 383.5 L 414.5 382 Q 411.2 383.1 412 380.5 L 413.5 381 L 416 379.5 Q 416.8 377.3 414.5 378 L 411.5 379 L 409.5 380 L 409 377.5 L 410.5 378 L 412 377.5 L 411.5 376 L 414.5 377 L 416 375.5 L 416 344.5 L 413 343 Q 411.5 339.2 414.5 340 Q 416.8 339.3 416 335.5 L 414.5 333 L 416 332.5 L 413.5 332 L 412 332.5 L 416 327.5 L 415 325.5 L 416 319 Q 419 320.3 418 316.5 L 418 314.5 L 417 312.5 L 418.5 305 Z " /><path fill="rgb(254,254,254)" stroke="rgb(254,254,254)" stroke-width="1" opacity="1" d="M 239.5 307 L 240 308.5 L 239 310.5 L 239 312.5 L 240 319.5 L 239 321.5 L 240 323.5 L 239 327.5 L 239 329.5 L 240 336 L 242 336.5 L 242 344 Q 239 345.3 240 341.5 L 239 339.5 L 240 337.5 Q 236.5 336 239 334.5 L 238.5 331 L 237 331.5 L 238 328.5 L 237 326.5 Q 239.2 325.3 238 320.5 L 237 317.5 L 238 317.5 L 238.5 320 L 239 316.5 L 237 312.5 L 239 308.5 L 239.5 307 Z " /><path fill="rgb(254,254,254)" stroke="rgb(254,254,254)" stroke-width="1" opacity="1" d="M 296.5 311 L 298 319 L 296 318.5 L 297 315.5 L 296.5 311 Z " /><path fill="rgb(254,254,254)" stroke="rgb(254,254,254)" stroke-width="1" opacity="1" d="M 296.5 320 L 298 323.5 L 297 326 L 299 326.5 L 297 330 L 300 330.5 L 298 331.5 L 301 333.5 L 301 335.5 L 301.5 343 L 305 342 L 306 346 L 304 345.5 L 304.5 344 L 302.5 343 L 300.5 344 L 298 343.5 L 297.5 341 L 296.5 344 L 296 340.5 L 298 337 L 296 336.5 L 296 334.5 L 296.5 333 L 297.5 335 L 298 332.5 L 296 328.5 L 296 326.5 L 296.5 320 Z M 300 336 L 298 340 L 300 341 L 300 336 Z " /><path fill="rgb(254,254,254)" stroke="rgb(254,254,254)" stroke-width="1" opacity="1" d="M 414.5 336 L 415 337.5 L 412 339 L 411 344 Q 407.3 342.5 408 345.5 L 407 347.5 L 407.5 349 L 404 347.5 L 407 345.5 L 406.5 344 L 410 342.5 L 408 341.5 L 410 340.5 L 409.5 339 L 412 339 Q 410.9 336.3 413.5 337 L 414.5 336 Z " /><path fill="rgb(254,254,254)" stroke="rgb(254,254,254)" stroke-width="1" opacity="1" d="M 243.5 344 L 245.5 348 Q 246.8 345.7 248 348.5 Q 249 352.3 246 351 L 245.5 349 L 244.5 352 Q 244.6 346.9 241 345.5 L 244 346.5 L 243.5 344 Z " /><path fill="rgb(254,254,254)" stroke="rgb(254,254,254)" stroke-width="1" opacity="1" d="M 247.5 344 L 246.5 346 L 247.5 344 Z " /><path fill="rgb(254,254,254)" stroke="rgb(254,254,254)" stroke-width="1" opacity="1" d="M 304 347 L 306 347.5 L 305 349.5 L 308 348.5 L 309 351.5 L 308 351.5 Q 308.8 349.3 306.5 350 Q 305.3 352.3 304 349.5 L 304 347 Z " /><path fill="rgb(254,254,254)" stroke="rgb(254,254,254)" stroke-width="1" opacity="1" d="M 403.5 349 L 406 350.5 L 401.5 357 L 399 357.5 Q 401.3 358.8 398.5 360 L 395.5 359 L 394 359.5 L 395.5 357 L 398.5 359 Q 396.9 357.3 400 355.5 Q 399.3 351.8 401.5 351 L 403.5 352 L 404.5 350 L 403.5 349 Z " /><path fill="rgb(254,254,254)" stroke="rgb(254,254,254)" stroke-width="1" opacity="1" d="M 254.5 352 L 256 354.5 L 254 353.5 L 254.5 352 Z " /><path fill="rgb(254,254,254)" stroke="rgb(254,254,254)" stroke-width="1" opacity="1" d="M 248.5 353 L 256 356 L 254.5 359 L 251.5 355 L 250 355.5 L 252.5 359 L 250 358.5 L 249.5 356 L 247 357 L 248.5 353 Z " /><path fill="rgb(254,254,254)" stroke="rgb(254,254,254)" stroke-width="1" opacity="1" d="M 312.5 353 L 315.5 357 L 314 357.5 L 317.5 359 L 320 359.5 L 314 360 L 312.5 353 Z " /><path fill="rgb(254,254,254)" stroke="rgb(254,254,254)" stroke-width="1" opacity="1" d="M 252.5 360 L 254.5 360 L 258 362.5 L 260 369.5 L 258.5 369 L 255 366.5 L 253 363.5 L 256 364.5 Q 257.5 360.1 254.5 361 L 251.5 362 L 252.5 360 Z " /><path fill="rgb(254,254,254)" stroke="rgb(254,254,254)" stroke-width="1" opacity="1" d="M 262 360 Q 265.3 358.9 264 363 Q 260.7 364.1 262 360 Z " /><path fill="rgb(254,254,254)" stroke="rgb(254,254,254)" stroke-width="1" opacity="1" d="M 320 361 L 322 361.5 L 320 362.5 L 320 361 Z " /><path fill="rgb(254,254,254)" stroke="rgb(254,254,254)" stroke-width="1" opacity="1" d="M 388.5 362 L 389 365 L 391 364.5 L 390 362 L 392 362.5 L 392 364.5 L 391 366.5 L 391.5 368 L 390 368.5 L 396.5 369 L 399.5 368 L 399.5 369 L 392.5 372 L 384.5 369 L 383.5 370 L 376 370 L 374.5 373 L 375 371.5 L 374.5 370 L 373 370.5 L 376 369.5 Q 375.3 367.3 377.5 368 L 381.5 366 L 384.5 365 L 386.5 366 L 386.5 364 Q 389 364.7 388.5 362 Z " /><path fill="rgb(254,254,254)" stroke="rgb(254,254,254)" stroke-width="1" opacity="1" d="M 321.5 364 L 324 364.5 L 323 366.5 L 325 365.5 Q 324.2 362.9 327.5 364 L 328 366.5 Q 328.8 368.8 326.5 368 L 324.5 367 L 322.5 368 Q 318 366 321.5 364 Z " /><path fill="rgb(254,254,254)" stroke="rgb(254,254,254)" stroke-width="1" opacity="1" d="M 329.5 365 L 330 367 L 332 367.5 L 329 368 L 329.5 365 Z " /><path fill="rgb(254,254,254)" stroke="rgb(254,254,254)" stroke-width="1" opacity="1" d="M 261 368 L 263 368.5 L 262.5 371 L 261 368 Z " /><path fill="rgb(254,254,254)" stroke="rgb(254,254,254)" stroke-width="1" opacity="1" d="M 264.5 368 L 265.5 372 L 267.5 368 L 269.5 369 L 271.5 368 L 271 369.5 L 272 376 L 270 376.5 L 271 379 Q 268.3 380.1 269 377.5 Q 266.3 376.4 267 373 L 263.5 374 L 262.5 372 L 264 372.5 L 264.5 368 Z M 268 371 L 270 374 L 270 373 L 268 371 Z " /><path fill="rgb(254,254,254)" stroke="rgb(254,254,254)" stroke-width="1" opacity="1" d="M 336.5 368 L 339.5 369 L 341.5 370 L 343 369.5 L 342 371.5 Q 343.3 375.7 349.5 375 L 349.5 374 L 344 371.5 L 347 370 Q 345.8 373 349.5 372 L 351 371.5 L 350.5 373 L 352.5 372 L 363.5 372 L 366.5 370 L 369.5 371 L 373 372.5 L 371.5 373 L 366.5 372 L 365.5 373 L 352 373.5 L 360 374.5 L 355.5 376 L 351.5 375 L 346.5 376 L 344.5 375 L 343 375.5 L 343 373 L 340 373 Q 341.3 370 337.5 371 L 336.5 368 Z " /><path fill="rgb(254,254,254)" stroke="rgb(254,254,254)" stroke-width="1" opacity="1" d="M 337 372 Q 339.7 370.9 339 373.5 L 336.5 375 L 337 373.5 L 337 372 Z " /><path fill="rgb(254,254,254)" stroke="rgb(254,254,254)" stroke-width="1" opacity="1" d="M 384 372 L 390.5 374 L 398 374 Q 396.9 371.3 399.5 372 L 400.5 373 L 408 373 Q 410.1 378.2 405.5 377 L 403.5 377 L 400 376 Q 401 373 398 374 L 397.5 376 L 387.5 376 L 384.5 374 L 384 376 L 379.5 377 L 375.5 377 L 370.5 379 L 370.5 377 Q 367.9 376.3 369 379 L 367 379 Q 368 376 365 377 L 366 381.5 L 365 381.5 L 363.5 379 L 361 379.5 L 364 381.5 L 362 382.5 L 361.5 381 L 360 384 L 352 385 L 352 381 L 360 381 Q 358.5 377.2 361.5 378 L 361.5 374 Q 367.6 374.8 370 373 Q 369.3 376.8 372.5 378 L 373 376.5 L 372 374 L 383.5 374 L 384 372 Z " /><path fill="rgb(254,254,254)" stroke="rgb(254,254,254)" stroke-width="1" opacity="1" d="M 340 374 L 342 374.5 L 340 375.5 L 340 374 Z " /><path fill="rgb(254,254,254)" stroke="rgb(254,254,254)" stroke-width="1" opacity="1" d="M 273.5 376 L 275.5 376 L 278 376.5 L 275 377.5 L 278.5 379 L 280 378.5 L 277 380.5 L 279 381 L 278.5 383 L 273 378.5 L 273.5 376 Z " /><path fill="rgb(254,254,254)" stroke="rgb(254,254,254)" stroke-width="1" opacity="1" d="M 280 381 L 288 381 L 288 383.5 Q 289.2 386.2 290.5 384 L 292.5 385 L 294.5 384 L 294.5 385 L 289 386.5 L 293.5 387 L 295.5 386 L 296.5 389 L 297.5 386 L 303.5 384 L 303.5 385 L 299 386.5 L 301 387 L 301.5 389 L 312 386.5 L 305 384.5 L 310.5 384 Q 312.3 387.8 319.5 386 L 321.5 385 L 321.5 386 L 320 386.5 L 330 390 Q 331.1 387.3 328.5 388 L 329.5 386 L 330 388 Q 332.7 389.1 332 386.5 L 331 384.5 L 332.5 385 L 339.5 384 L 342.5 385 L 345.5 384 Q 351.6 382.8 351 385.5 L 349 385.5 Q 349.8 388.1 346.5 387 L 345 387.5 L 344.5 386 L 343 389 L 337.5 388 L 337.5 390 L 335.5 390 L 331.5 389 L 327.5 391 L 323.5 390 L 323.5 392 Q 319.7 389.3 311.5 391 Q 310 393.5 308.5 390 L 301.5 391 L 299 390 L 298.5 388 Q 297 391.5 295.5 389 L 288.5 388 L 282.5 384 L 280 384 L 280 381 Z M 287 384 L 288 386 Q 289 383 287 384 Z M 337 385 L 338 387 L 341 387 L 337 385 Z M 346 385 L 346 386 L 348 386 L 346 385 Z M 312 388 L 311 390 L 313 389 Q 319 388 322 390 L 322 388 L 312 388 Z " /><path fill="rgb(254,254,254)" stroke="rgb(254,254,254)" stroke-width="1" opacity="1" d="M 323.5 384 L 329 384.5 L 323.5 385 L 323.5 384 Z " /><path fill="rgb(254,254,254)" stroke="rgb(254,254,254)" stroke-width="1" opacity="1" d="M 302.5 386 L 308 386.5 L 302.5 387 L 302.5 386 Z " /><path fill="rgb(255,255,255)" stroke="rgb(255,255,255)" stroke-width="1" opacity="1" d="M 338.5 161 L 340 161.5 L 337.5 163 L 338.5 161 Z " /><path fill="rgb(255,255,255)" stroke="rgb(255,255,255)" stroke-width="1" opacity="1" d="M 360.5 161 L 363 161.5 L 360.5 162 L 360.5 161 Z " /><path fill="rgb(255,255,255)" stroke="rgb(255,255,255)" stroke-width="1" opacity="1" d="M 364.5 161 L 367 162.5 L 365.5 162 L 364.5 161 Z " /><path fill="rgb(255,255,255)" stroke="rgb(255,255,255)" stroke-width="1" opacity="1" d="M 332.5 162 L 336 162.5 Q 333.9 164.9 328.5 164 L 327 165.5 L 329 166.5 L 328.5 168 L 333 166.5 L 330 165.5 L 332.5 165 L 334.5 165 L 342.5 163 L 342.5 165 L 346.5 164 L 352 166 Q 353.3 163 349.5 164 L 349.5 163 Q 360.4 161.6 367.5 164 L 369 163.5 Q 369.5 166.5 362.5 165 Q 361 168.5 359.5 166 L 352.5 166 L 352 168 L 359.5 168 L 361 169.5 L 360 172.5 L 362.5 171 L 368 169 Q 369.3 166 365.5 167 L 362.5 169 L 364.5 166 L 370 167.5 L 368.5 170 L 372 171.5 L 369 172.5 L 372 173.5 L 368.5 175 L 366 173.5 L 369 171.5 L 366.5 171 L 360 176.5 L 360.5 178 L 357.5 176 L 359 178.5 L 358 179.5 L 357.5 181 L 357 179 L 354 180.5 Q 357.8 182.3 354.5 184 Q 350.1 182.5 351 185.5 L 349.5 188 L 348 186.5 L 349.5 184 L 347.5 185 L 346 184.5 L 347 187.5 L 345 186.5 L 344.5 185 L 344 187.5 L 346 191.5 L 346 193.5 L 345 198.5 L 346 200.5 L 344 200.5 L 346 207 L 349 205.5 L 347 201.5 L 349 202.5 L 351 207.5 Q 348 208.5 349 213.5 L 350 213.5 L 350.5 212 L 351 216 L 347.5 217 L 345.5 216 L 346 217.5 Q 346.8 219.8 344.5 219 L 345 220.5 L 345.5 222 L 346 220 Q 348.7 221.1 348 218.5 L 350.5 217 L 347 221.5 L 345 228.5 L 347 227.5 L 347.5 226 L 348 227.5 L 344.5 232 L 340.5 233 L 338.5 233 L 336 234.5 Q 338.3 235.8 335.5 237 L 332.5 237 L 329.5 240 L 324.5 240 L 320.5 242 L 317.5 240 L 315.5 240 L 312.5 241 Q 309.8 239.7 312 238.5 L 311.5 237 L 309.5 238 L 307 236.5 L 312 232.5 L 309.5 232 L 306.5 233 L 304 232 L 303.5 228 L 302.5 233 L 302 226 Q 299.3 224.9 300 227.5 L 301 229.5 L 299 228.5 Q 299.8 225.9 296.5 227 L 295 227.5 L 298 226 Q 299.3 223 295.5 224 L 296 222.5 L 295.5 221 L 294 221.5 Q 293.3 218.9 296 220 L 296 217.5 L 295 217.5 L 294.5 219 L 293.5 217 L 295 216.5 L 292 214.5 L 292.5 213 Q 294.3 215.8 296 211.5 L 295.5 209 L 293.5 212 L 291 208.5 L 292 208.5 L 292.5 210 L 294 206.5 Q 291.8 205.2 294.5 204 L 295.5 208 L 296 203 Q 293 204 294 201 Q 297.3 202.3 296 197.5 L 294.5 195 L 293 195.5 L 296 191.5 L 295.5 190 L 298 191.5 L 298.5 190 L 300 190.5 L 299 187.5 L 300 187.5 L 300.5 189 L 301.5 187 L 303.5 192 L 304 188.5 L 302.5 184 L 300 185.5 L 300.5 184 L 299 183.5 L 300.5 183 L 302 183.5 L 301 181.5 L 303.5 178 L 306.5 176 L 307 177.5 L 303 179 Q 301.8 182 305.5 181 Q 310.3 178.5 308.5 176 Q 311.1 175.2 310 178.5 L 307.5 182 L 312 180 L 311 176.5 L 311.5 175 L 309.5 174 L 308 174.5 Q 309.3 171.8 310.5 174 L 312 173.5 Q 309.8 172.3 312.5 171 L 316 173.5 L 314.5 174 Q 313.3 171.8 312 174.5 L 315.5 176 L 319 173.5 L 317 172.5 L 318.5 172 L 320 172.5 Q 319.3 167.8 321.5 166 L 326.5 168 L 327 166 L 325 165.5 L 332.5 162 Z M 337 165 L 337 166 Q 341 165 343 168 L 344 168 Q 343 164 337 165 Z M 344 165 L 344 167 L 348 168 L 351 168 L 344 165 Z M 335 166 L 334 168 L 338 168 L 335 166 Z M 353 176 L 352 179 L 355 179 L 355 177 L 353 176 Z M 353 180 L 352 182 L 355 183 L 353 180 Z M 312 181 L 309 183 L 309 184 L 312 183 L 312 181 Z M 303 182 L 304 184 L 307 183 L 303 182 Z M 345 193 L 344 197 L 345 197 L 345 193 Z M 345 204 L 344 211 L 346 211 Q 347 214 344 213 L 345 216 L 345 215 L 348 216 L 347 213 L 348 209 L 345 210 L 346 208 L 345 204 Z M 345 222 L 344 225 L 345 225 L 345 222 Z M 300 224 L 300 225 L 304 227 L 304 226 Q 303 223 300 224 Z M 329 232 L 329 233 L 331 233 L 329 232 Z " /><path fill="rgb(255,255,255)" stroke="rgb(255,255,255)" stroke-width="1" opacity="1" d="M 371.5 163 L 374 163.5 L 371.5 164 L 371.5 163 Z " /><path fill="rgb(255,255,255)" stroke="rgb(255,255,255)" stroke-width="1" opacity="1" d="M 370.5 165 L 378.5 166 L 380 167.5 L 378.5 167 L 376 167.5 L 378 168.5 L 375.5 169 Q 370.9 167.8 370.5 165 Z " /><path fill="rgb(255,255,255)" stroke="rgb(255,255,255)" stroke-width="1" opacity="1" d="M 380.5 165 L 381.5 167 L 380.5 165 Z " /><path fill="rgb(255,255,255)" stroke="rgb(255,255,255)" stroke-width="1" opacity="1" d="M 384.5 167 L 386.5 171 L 388.5 172 L 389.5 170 L 393 172.5 L 392 173.5 L 393.5 176 L 391 175 Q 392.3 170.9 389 172 L 390 176 L 388 175.5 L 388 173.5 Q 388.8 170.9 385.5 172 L 385.5 173 Q 388.1 172.3 387 175 Q 384.3 176.1 385 173.5 L 381 171.5 L 384 170.5 L 380.5 170 L 377.5 171 L 377.5 170 L 384 169 L 384.5 167 Z " /><path fill="rgb(255,255,255)" stroke="rgb(255,255,255)" stroke-width="1" opacity="1" d="M 316.5 168 L 316.5 170 L 318.5 169 L 319 171 L 314 169.5 L 316.5 168 Z " /><path fill="rgb(255,255,255)" stroke="rgb(255,255,255)" stroke-width="1" opacity="1" d="M 386.5 168 L 387.5 170 L 386.5 168 Z " /><path fill="rgb(255,255,255)" stroke="rgb(255,255,255)" stroke-width="1" opacity="1" d="M 371.5 169 L 374 169.5 L 371.5 170 L 371.5 169 Z " /><path fill="rgb(255,255,255)" stroke="rgb(255,255,255)" stroke-width="1" opacity="1" d="M 373.5 171 Q 375 174.5 376.5 172 L 382 173.5 L 375.5 174 L 373 173 L 373.5 171 Z " /><path fill="rgb(255,255,255)" stroke="rgb(255,255,255)" stroke-width="1" opacity="1" d="M 394.5 173 L 397.5 177 L 395 176.5 L 396 175.5 L 394.5 173 Z " /><path fill="rgb(255,255,255)" stroke="rgb(255,255,255)" stroke-width="1" opacity="1" d="M 402.5 183 L 403.5 185 L 402.5 183 Z " /><path fill="rgb(255,255,255)" stroke="rgb(255,255,255)" stroke-width="1" opacity="1" d="M 351.5 187 L 352 188.5 L 350 191.5 L 350.5 193 L 348.5 190 L 347 190.5 Q 346.3 188.3 348.5 189 Q 349.8 191.3 351 188.5 L 351.5 187 Z " /><path fill="rgb(255,255,255)" stroke="rgb(255,255,255)" stroke-width="1" opacity="1" d="M 408.5 191 L 409.5 193 L 408.5 191 Z " /><path fill="rgb(255,255,255)" stroke="rgb(255,255,255)" stroke-width="1" opacity="1" d="M 349.5 194 L 350 196.5 L 349 196.5 L 349.5 194 Z " /><path fill="rgb(255,255,255)" stroke="rgb(255,255,255)" stroke-width="1" opacity="1" d="M 347.5 196 L 348 199.5 L 347 199.5 L 347.5 196 Z " /><path fill="rgb(255,255,255)" stroke="rgb(255,255,255)" stroke-width="1" opacity="1" d="M 293.5 197 L 294.5 199 Q 291.7 199.7 293.5 197 Z " /><path fill="rgb(255,255,255)" stroke="rgb(255,255,255)" stroke-width="1" opacity="1" d="M 459.5 202 L 466 202.5 L 464 204.5 L 464.5 207 L 470.5 206 L 472.5 204 L 470.5 207 L 466 207.5 L 476.5 208 L 480.5 206 L 482.5 207 L 482.5 205 Q 485.3 206.3 483 207.5 L 484 212 L 489 212.5 L 488 214.5 L 489.5 214 L 491.5 215 Q 492.8 212.8 494 215.5 L 493.5 218 L 492.5 215 L 490.5 215 L 489 215.5 L 495 220 L 494.5 222 L 491 219.5 L 489 216.5 L 488 216.5 L 489 219.5 L 488 224 L 491 223.5 L 489 223 Q 488 220 491 221 Q 489.7 224.3 494.5 223 Q 495.8 225.3 497 222.5 L 495 218.5 L 497 219.5 L 498 222.5 L 498 224.5 L 499 226.5 L 497 226.5 L 496 230.5 L 497 233.5 L 496 237.5 L 498 236.5 L 498.5 235 L 499 237.5 L 497 240.5 L 497.5 242 L 495 240.5 L 493.5 244 L 493 242.5 L 494 240.5 L 492 241.5 Q 493 245.3 490 244 L 492 240.5 L 490.5 240 L 488 246.5 L 489 246.5 L 489.5 245 L 490 246.5 L 489.5 248 Q 491.8 248.8 491 246.5 L 492 246.5 L 493 248.5 Q 491.8 251.3 490.5 249 L 489 249.5 L 490 251.5 L 489 251.5 Q 489.8 249.3 487.5 250 L 487.5 249 L 489 248.5 L 486.5 248 L 483.5 249 L 480 250.5 L 480 252.5 L 479.5 254 L 472.5 254 Q 470.7 251.3 464.5 253 L 461.5 255 L 461.5 254 L 463 253.5 L 461 252.5 L 464 251.5 L 464 249.5 L 463.5 248 L 461 249.5 L 461.5 251 L 459 252.5 L 459.5 254 L 457 252.5 L 460 250.5 Q 458.3 247.2 452.5 248 L 450.5 251 Q 449 247.5 447.5 250 L 445 249.5 L 448 248.5 L 441.5 248 L 439 249.5 L 439.5 248 L 435 248.5 L 435.5 250 L 431.5 249 L 429 250.5 L 430.5 248 L 427.5 250 L 425 249.5 L 424.5 248 L 424 250.5 L 427 252.5 L 427.5 251 L 428 252.5 L 428 254.5 L 425.5 257 Q 427.1 255.3 424 253.5 L 425 252.5 L 423 250.5 L 422.5 248 L 421.5 251 L 420 250.5 L 419.5 253 L 419 250.5 L 420 248 L 422.5 247 L 424 247.5 L 423 240.5 L 423 238.5 L 424 232.5 L 423.5 231 L 426.5 232 L 426 230.5 L 425.5 229 L 424 229.5 L 427.5 224 L 430 225 L 432 216 L 435.5 214 L 435.5 216 L 438 214.5 L 437 213.5 Q 440.1 211.8 438.5 210 Q 440.8 209.3 440 211.5 Q 436.5 213 439 214.5 L 439.5 216 L 441.5 213 Q 445.3 212 444 215 L 441 215.5 L 445.5 216 Q 449 215 448 209.5 L 447 209.5 Q 448.3 214.3 445 213 L 446 207.5 L 445.5 206 Q 448.2 208.8 454.5 208 L 457.5 207 Q 458.8 209.2 463.5 208 L 463.5 207 L 455.5 205 L 450.5 207 L 447 205.5 L 451.5 204 L 454.5 205 L 456.5 205 L 463.5 206 L 463.5 205 L 461 204.5 L 464 203.5 L 459.5 203 L 459.5 202 Z M 428 225 L 426 228 L 427 231 L 430 232 L 432 229 L 431 226 L 430 226 Q 432 231 428 230 L 429 228 L 428 225 Z " /><path fill="rgb(255,255,255)" stroke="rgb(255,255,255)" stroke-width="1" opacity="1" d="M 470.5 202 L 473 202.5 L 470.5 203 L 470.5 202 Z " /><path fill="rgb(255,255,255)" stroke="rgb(255,255,255)" stroke-width="1" opacity="1" d="M 475.5 203 L 479 204.5 L 477.5 205 L 475.5 203 Z " /><path fill="rgb(255,255,255)" stroke="rgb(255,255,255)" stroke-width="1" opacity="1" d="M 291.5 204 L 292 206.5 L 291 206.5 L 291.5 204 Z " /><path fill="rgb(255,255,255)" stroke="rgb(255,255,255)" stroke-width="1" opacity="1" d="M 466.5 204 L 470 204.5 L 466.5 205 L 466.5 204 Z " /><path fill="rgb(255,255,255)" stroke="rgb(255,255,255)" stroke-width="1" opacity="1" d="M 474.5 205 L 475 207 L 473 206.5 L 474.5 205 Z " /><path fill="rgb(255,255,255)" stroke="rgb(255,255,255)" stroke-width="1" opacity="1" d="M 443.5 207 L 444 208.5 L 443 211 L 441 210.5 L 443.5 207 Z " /><path fill="rgb(255,255,255)" stroke="rgb(255,255,255)" stroke-width="1" opacity="1" d="M 490.5 211 L 491.5 213 L 490.5 211 Z " /><path fill="rgb(255,255,255)" stroke="rgb(255,255,255)" stroke-width="1" opacity="1" d="M 349.5 221 L 349 222.5 L 347.5 225 L 348 223.5 L 349.5 221 Z " /><path fill="rgb(255,255,255)" stroke="rgb(255,255,255)" stroke-width="1" opacity="1" d="M 293.5 223 L 295 225.5 L 293 224.5 L 293.5 223 Z " /><path fill="rgb(255,255,255)" stroke="rgb(255,255,255)" stroke-width="1" opacity="1" d="M 498.5 228 L 499 232.5 L 498 232.5 L 498.5 228 Z " /><path fill="rgb(255,255,255)" stroke="rgb(255,255,255)" stroke-width="1" opacity="1" d="M 297.5 229 L 301 231.5 L 300.5 234 L 297.5 229 Z " /><path fill="rgb(255,255,255)" stroke="rgb(255,255,255)" stroke-width="1" opacity="1" d="M 404.5 231 L 400.5 236 L 404.5 231 Z " /><path fill="rgb(255,255,255)" stroke="rgb(255,255,255)" stroke-width="1" opacity="1" d="M 338.5 234 L 340 236.5 L 338 237.5 L 339 235.5 L 338.5 234 Z " /><path fill="rgb(255,255,255)" stroke="rgb(255,255,255)" stroke-width="1" opacity="1" d="M 397.5 237 L 395.5 240 L 397.5 237 Z " /><path fill="rgb(255,255,255)" stroke="rgb(255,255,255)" stroke-width="1" opacity="1" d="M 393.5 240 L 392.5 242 L 391 241.5 L 393.5 240 Z " /><path fill="rgb(255,255,255)" stroke="rgb(255,255,255)" stroke-width="1" opacity="1" d="M 496.5 243 L 496 244.5 Q 496.8 246.8 494.5 246 L 496.5 243 Z " /><path fill="rgb(255,255,255)" stroke="rgb(255,255,255)" stroke-width="1" opacity="1" d="M 384.5 244 L 383.5 246 L 384.5 244 Z " /><path fill="rgb(255,255,255)" stroke="rgb(255,255,255)" stroke-width="1" opacity="1" d="M 378.5 246 L 378 247.5 L 377.5 249 L 374 247.5 L 378.5 246 Z " /><path fill="rgb(255,255,255)" stroke="rgb(255,255,255)" stroke-width="1" opacity="1" d="M 380 246 L 382 246.5 L 380 247.5 L 380 246 Z " /><path fill="rgb(255,255,255)" stroke="rgb(255,255,255)" stroke-width="1" opacity="1" d="M 371.5 248 L 373 248.5 L 369.5 250 L 369.5 249 L 371.5 248 Z " /><path fill="rgb(255,255,255)" stroke="rgb(255,255,255)" stroke-width="1" opacity="1" d="M 366.5 249 L 368 249.5 L 361.5 252 L 361.5 251 L 366.5 249 Z " /><path fill="rgb(255,255,255)" stroke="rgb(255,255,255)" stroke-width="1" opacity="1" d="M 453.5 249 L 457 250.5 L 455.5 250 Q 452.5 250.5 453.5 249 Z " /><path fill="rgb(255,255,255)" stroke="rgb(255,255,255)" stroke-width="1" opacity="1" d="M 336.5 250 L 344 250.5 L 330.5 252 L 330.5 251 Q 335.2 252.3 336.5 250 Z " /><path fill="rgb(255,255,255)" stroke="rgb(255,255,255)" stroke-width="1" opacity="1" d="M 346.5 250 L 349 250.5 L 346.5 251 L 346.5 250 Z " /><path fill="rgb(255,255,255)" stroke="rgb(255,255,255)" stroke-width="1" opacity="1" d="M 353.5 250 L 360 251.5 L 357.5 252 L 353.5 251 L 353.5 250 Z " /><path fill="rgb(255,255,255)" stroke="rgb(255,255,255)" stroke-width="1" opacity="1" d="M 432.5 250 L 431.5 252 L 432.5 250 Z " /><path fill="rgb(255,255,255)" stroke="rgb(255,255,255)" stroke-width="1" opacity="1" d="M 482.5 250 Q 486.9 248.5 486 251.5 L 484.5 251 Q 481.5 251.5 482.5 250 Z " /><path fill="rgb(255,255,255)" stroke="rgb(255,255,255)" stroke-width="1" opacity="1" d="M 320.5 251 L 324 251.5 L 320.5 252 L 320.5 251 Z " /><path fill="rgb(255,255,255)" stroke="rgb(255,255,255)" stroke-width="1" opacity="1" d="M 316.5 252 L 319 252.5 L 316.5 253 L 316.5 252 Z " /><path fill="rgb(255,255,255)" stroke="rgb(255,255,255)" stroke-width="1" opacity="1" d="M 344.5 252 Q 352.9 250.7 357 253.5 L 354.5 254 L 353.5 253 L 344.5 253 L 344.5 254 L 351 254.5 L 344 255.5 L 347 257.5 L 345 258.5 L 343.5 256 L 341.5 256 L 340 256.5 L 340.5 258 L 334.5 255 L 333.5 257 L 339 258.5 L 334.5 260 L 334.5 259 L 336 258.5 L 330.5 257 L 331 258.5 L 330.5 260 L 328 258.5 L 329 260.5 L 326.5 265 L 324.5 264 L 320 266.5 L 321.5 268 L 325.5 266 L 327 266.5 L 324.5 268 L 323 267.5 L 322.5 270 Q 321.3 267.8 320 270.5 L 317.5 274 L 314 275.5 L 314.5 277 L 312.5 274 L 309 276.5 L 308 279.5 L 309 281.5 L 306 283.5 L 308 280.5 L 306.5 281 Q 304.3 280.3 305 282.5 L 305 284.5 L 305 289 Q 301.3 287.5 302 290.5 L 301 290.5 Q 301.7 287.5 298 289 L 297 292.5 L 298.5 296 Q 299.8 293.8 301 296.5 L 297.5 296 L 296 297.5 L 297 300.5 L 296 302.5 L 299 303.5 L 296 304.5 L 298 313.5 L 297 313.5 L 296.5 311 L 296 314.5 L 297 317.5 L 296.5 319 Q 298.8 318.3 298 320.5 L 296 320.5 Q 294.5 326.5 297.5 328 L 299 327.5 L 298.5 330 Q 296.3 330.8 297 328.5 L 296 328.5 L 298 334.5 L 296.5 337 L 298 337 L 298 339 Q 300.7 337.9 300 340.5 L 297.5 339 L 296 340.5 L 296.5 344 L 297.5 341 L 298.5 344 L 300.5 344 L 302 343.5 L 301 341.5 L 302 341.5 L 303.5 344 L 305 344.5 L 304 349.5 L 307 347.5 L 305 346.5 L 306.5 346 Q 310.2 348.2 305 350.5 L 305.5 352 L 307.5 351 L 309 351.5 L 308 349.5 L 310 350.5 L 312 353.5 L 313 356.5 L 313.5 358 L 316 357 L 315.5 359 L 314 358.5 Q 313.5 361.5 320.5 360 L 320 361.5 L 320.5 363 L 322.5 363 L 324.5 364 L 326 363.5 L 324 366.5 L 325.5 367 L 328.5 365 L 328.5 366 L 326 367.5 L 327.5 368 L 329.5 368 L 332 367.5 L 330 366.5 L 331.5 366 L 336 368 L 337 370.5 L 337 372.5 L 336 374.5 L 337.5 375 L 339 372.5 L 338.5 371 Q 341.1 370.3 340 373 L 343 373 L 343 375.5 L 344.5 375 L 346 374.5 L 344 374 Q 345.1 371.3 342.5 372 L 342.5 371 L 344.5 370 L 345.5 373 L 350 374.5 L 346 375.5 L 350.5 376 L 354.5 375 L 356.5 376 L 360 374.5 Q 351.5 375 347 371.5 L 349.5 371 L 351.5 372 L 352.5 371 L 363.5 371 L 363.5 372 L 352 372.5 L 365.5 373 L 370.5 372 L 374.5 373 L 374.5 372 L 372 371.5 L 374 370.5 L 371.5 370 L 369.5 371 L 369.5 370 L 373.5 369 L 375.5 372 L 376 370 L 386.5 369 L 394.5 372 L 400 368.5 L 397.5 368 Q 396 370.5 390.5 369 L 390.5 368 L 392 367.5 L 392 365.5 L 391.5 364 L 389.5 365 L 389.5 364 L 392 362.5 L 390.5 362 L 389 362.5 L 393.5 359 L 395.5 360 L 399.5 354 L 398 356.5 L 398.5 358 L 403 355.5 L 404 352.5 L 402.5 350 Q 403.8 352.3 405 349.5 L 404.5 348 Q 406.8 347.3 406 349.5 L 404.5 352 L 407 350.5 L 408 348.5 L 406.5 346 L 405 346.5 L 408 345.5 L 407 343.5 L 409 342.5 L 408.5 344 Q 411.8 345.1 411 342.5 L 412 339 L 410 338.5 Q 413.1 336.8 411.5 335 L 413 335.5 L 412 333.5 L 415.5 332 L 415.5 333 L 414 333 L 414 337 Q 411 336 412 339 L 415 337.5 L 415.5 335 L 416 338.5 L 413 340 L 412 343.5 L 413.5 343 Q 415.8 343.8 415 341.5 L 416 341.5 L 415 343.5 L 416 344.5 L 416 375.5 L 413.5 377 L 411.5 376 L 411.5 378 L 408.5 377 L 408.5 379 L 404 376.5 L 405.5 377 Q 410.1 378.2 408 373 Q 401.1 374 398 372 L 400 376 Q 396.9 376.8 397.5 374 L 390.5 374 L 384 372 L 385.5 375 L 387 375.5 L 384 376 L 383.5 374 L 370.5 374 L 368.5 373 L 368.5 375 Q 367 372.5 361.5 374 L 361.5 378 Q 358.5 377.2 360 381 L 352 381 L 352 384.5 L 352.5 386 Q 351.3 382.8 345.5 384 L 345.5 385 L 348 385.5 L 345.5 386 Q 344 382.5 342.5 385 L 335.5 384 L 332.5 385 L 331 384.5 L 332 388 L 326.5 389 L 322 388 Q 323.1 390.7 320.5 390 Q 318.7 387.3 312.5 389 L 310.5 390 L 311.5 388 L 322 387.5 Q 319.3 384.7 312.5 386 L 308.5 388 Q 303 386.5 301.5 389 L 301 387 L 294.5 386 L 289.5 387 L 289.5 386 L 293 385.5 L 290.5 384 L 288 384.5 L 287.5 386 L 287 384.5 L 288 381 L 280.5 381 L 279.5 382 L 277 380.5 L 279 379.5 L 275.5 378 L 274 379.5 L 275.5 382 L 271 378.5 L 271.5 377 L 269 375.5 L 270.5 376 Q 272.8 376.8 272 374.5 L 271 369.5 L 271.5 368 L 268.5 369 Q 267.3 366.8 266 369.5 L 265.5 372 L 264.5 368 Q 261.8 369.3 264 370.5 L 263.5 372 L 262 369.5 L 262.5 368 L 260.5 369 L 256.5 361 L 255.5 364 L 252 359.5 L 253 358.5 L 249.5 355 L 247.5 354 L 246.5 356 Q 244.3 354.3 245 349.5 L 245 347.5 L 244.5 345 L 243 347.5 L 244 349.5 L 243 349.5 L 242 347.5 L 244 344.5 L 242.5 344 L 241 344.5 L 242 343.5 L 242 336 Q 238.3 337.4 240 331.5 L 239 331.5 L 238.5 335 L 238 331.5 L 240 328.5 L 239 324.5 L 240 322.5 L 238.5 320 L 237.5 326 L 237 320.5 L 238 317.5 L 237 315.5 L 239 315.5 L 240 311.5 L 238 306.5 L 239 306.5 L 239.5 309 L 240 305.5 L 239 302.5 L 240.5 300 L 241 301.5 Q 238.8 302.8 241.5 304 L 244 295 Q 241.3 296.1 242 293.5 L 244 292.5 Q 241.8 293.8 244.5 295 L 246.5 292 L 246 293.5 L 246.5 295 L 248 291.5 L 248 289.5 L 247.5 288 L 246 288.5 L 246 286.5 L 248.5 284 L 250.5 285 L 252.5 282 L 254 284.5 Q 252 282.8 250 286.5 L 252.5 288 L 252.5 286 L 255.5 288 L 255 286.5 L 256 284.5 L 252.5 280 L 251 280.5 L 257 275.5 Q 254.8 276.8 257.5 278 L 261.5 280 L 261.5 278 L 263.5 279 L 261.5 276 L 258.5 277 L 258.5 276 L 260 276 L 260 274 Q 262.7 275.1 262 272.5 L 260 272.5 L 263 270.5 L 263 272.5 L 263.5 274 L 264 272 L 268 271.5 L 264 270.5 L 267.5 270 L 271.5 272 L 270.5 270 L 269 269.5 L 270.5 269 L 272 269.5 Q 272.8 267.3 270.5 268 L 269.5 266 Q 270.8 268.3 275.5 267 L 281 263.5 L 279 262.5 L 284.5 260 L 284.5 261 Q 280.3 259.9 282 264 L 287.5 263 L 289.5 264 Q 287.7 261.5 292.5 259 L 299.5 259 Q 300.9 255.4 306 255.5 L 304 254.5 L 308.5 253 L 308.5 254 Q 306.3 253.3 307 255.5 L 308.5 255 L 312.5 253 L 313 255 L 319.5 254 L 320.5 255 L 332.5 256 L 331.5 254 L 321 253.5 L 331.5 253 L 335.5 254 L 344.5 252 Z M 337 254 L 337 255 L 344 255 L 337 254 Z M 294 260 L 290 263 L 293 264 L 295 264 L 293 263 L 296 261 L 294 260 Z M 302 263 L 302 264 L 304 264 L 302 263 Z M 278 271 L 278 272 L 280 272 L 278 271 Z M 315 272 L 313 274 L 316 274 L 315 272 Z M 263 274 L 262 276 L 264 277 L 263 274 Z M 249 285 L 247 287 L 249 287 L 249 285 Z M 246 295 Q 246 300 243 302 Q 242 306 247 304 L 248 301 L 246 301 Q 247 304 245 303 L 247 300 Q 248 296 246 295 Z M 240 316 L 239 320 L 240 320 L 240 316 Z M 247 345 L 246 348 L 247 348 L 247 345 Z M 248 348 L 246 350 Q 245 352 248 351 L 248 348 Z M 253 352 L 256 355 L 256 354 L 253 352 Z M 249 353 L 249 354 L 254 358 Q 252 362 256 361 L 255 360 L 256 356 L 249 353 Z M 262 360 Q 261 364 264 363 Q 265 359 262 360 Z M 322 363 L 320 366 L 324 368 L 323 367 L 324 365 L 322 363 Z M 340 374 L 340 376 L 342 375 L 340 374 Z M 273 376 L 273 379 L 275 378 L 273 376 Z M 276 376 L 276 377 L 278 377 L 276 376 Z M 302 384 L 302 385 L 304 385 L 302 384 Z M 306 384 L 306 385 L 311 386 L 312 386 Q 311 383 306 384 Z M 324 384 L 324 385 L 329 385 L 324 384 Z M 303 386 L 303 387 L 308 387 L 303 386 Z M 325 386 L 325 387 L 330 388 Q 331 384 325 386 Z " /><path fill="rgb(255,255,255)" stroke="rgb(255,255,255)" stroke-width="1" opacity="1" d="M 422.5 252 L 423 254.5 L 422 254.5 L 422.5 252 Z " /><path fill="rgb(255,255,255)" stroke="rgb(255,255,255)" stroke-width="1" opacity="1" d="M 483.5 252 L 482.5 254 L 481 253.5 L 483.5 252 Z " /><path fill="rgb(255,255,255)" stroke="rgb(255,255,255)" stroke-width="1" opacity="1" d="M 485.5 253 L 484.5 255 L 485.5 253 Z " /><path fill="rgb(255,255,255)" stroke="rgb(255,255,255)" stroke-width="1" opacity="1" d="M 352.5 254 L 353 255.5 L 351 256.5 L 352.5 254 Z " /><path fill="rgb(255,255,255)" stroke="rgb(255,255,255)" stroke-width="1" opacity="1" d="M 420.5 254 L 421 257 L 423.5 256 L 422.5 258 Q 419.9 257.2 421 260.5 L 423 260.5 L 421.5 263 L 418 257.5 L 420.5 254 Z M 419 257 L 419 259 L 421 258 L 419 257 Z " /><path fill="rgb(255,255,255)" stroke="rgb(255,255,255)" stroke-width="1" opacity="1" d="M 291.5 257 L 296 257.5 L 289 259 L 287.5 262 L 287 259 L 291.5 257 Z " /><path fill="rgb(255,255,255)" stroke="rgb(255,255,255)" stroke-width="1" opacity="1" d="M 332.5 260 L 334 262.5 Q 332.8 265 329 264 Q 327.9 261.3 330.5 262 L 332.5 260 Z " /><path fill="rgb(255,255,255)" stroke="rgb(255,255,255)" stroke-width="1" opacity="1" d="M 337.5 260 L 339 260.5 L 335.5 262 L 335.5 261 L 337.5 260 Z " /><path fill="rgb(255,255,255)" stroke="rgb(255,255,255)" stroke-width="1" opacity="1" d="M 418.5 261 L 420.5 265 L 422 264.5 L 420.5 267 L 418.5 261 Z " /><path fill="rgb(255,255,255)" stroke="rgb(255,255,255)" stroke-width="1" opacity="1" d="M 276.5 262 L 278 262.5 L 274.5 264 L 274.5 263 L 276.5 262 Z " /><path fill="rgb(255,255,255)" stroke="rgb(255,255,255)" stroke-width="1" opacity="1" d="M 418.5 267 L 420 270.5 L 418 271.5 L 419 269.5 L 418.5 267 Z " /><path fill="rgb(255,255,255)" stroke="rgb(255,255,255)" stroke-width="1" opacity="1" d="M 418.5 277 L 419 280.5 L 418 280.5 L 418.5 277 Z " /><path fill="rgb(255,255,255)" stroke="rgb(255,255,255)" stroke-width="1" opacity="1" d="M 302.5 292 L 303 293.5 L 301 294.5 L 302.5 292 Z " /><path fill="rgb(255,255,255)" stroke="rgb(255,255,255)" stroke-width="1" opacity="1" d="M 242.5 296 L 242 297.5 Q 242.8 299.8 240.5 299 L 242.5 296 Z " /><path fill="rgb(255,255,255)" stroke="rgb(255,255,255)" stroke-width="1" opacity="1" d="M 418.5 296 L 419 303.5 L 418 303.5 L 418.5 296 Z " /><path fill="rgb(255,255,255)" stroke="rgb(255,255,255)" stroke-width="1" opacity="1" d="M 298.5 298 L 300 301.5 L 298 300.5 L 298.5 298 Z " /><path fill="rgb(255,255,255)" stroke="rgb(255,255,255)" stroke-width="1" opacity="1" d="M 417.5 316 L 418 319 L 416 318.5 L 417.5 316 Z " /><path fill="rgb(255,255,255)" stroke="rgb(255,255,255)" stroke-width="1" opacity="1" d="M 415.5 327 L 414.5 329 L 415.5 327 Z " /><path fill="rgb(255,255,255)" stroke="rgb(255,255,255)" stroke-width="1" opacity="1" d="M 238.5 336 L 240 338.5 L 239 338.5 L 238.5 336 Z " /><path fill="rgb(255,255,255)" stroke="rgb(255,255,255)" stroke-width="1" opacity="1" d="M 301.5 337 L 303 339.5 L 301 338.5 L 301.5 337 Z " /><path fill="rgb(255,255,255)" stroke="rgb(255,255,255)" stroke-width="1" opacity="1" d="M 248.5 357 Q 250.8 356.3 250 358.5 L 251 360.5 L 250 360.5 L 248.5 357 Z " /><path fill="rgb(255,255,255)" stroke="rgb(255,255,255)" stroke-width="1" opacity="1" d="M 251.5 362 Q 253.8 361.3 253 363.5 L 254.5 366 L 251.5 362 Z " /><path fill="rgb(255,255,255)" stroke="rgb(255,255,255)" stroke-width="1" opacity="1" d="M 385.5 365 L 389 366.5 L 387.5 367 L 385.5 365 Z " /><path fill="rgb(255,255,255)" stroke="rgb(255,255,255)" stroke-width="1" opacity="1" d="M 383.5 366 L 386 367.5 L 384.5 368 L 383.5 366 Z " /><path fill="rgb(255,255,255)" stroke="rgb(255,255,255)" stroke-width="1" opacity="1" d="M 258.5 369 L 261.5 373 L 258.5 369 Z " /><path fill="rgb(255,255,255)" stroke="rgb(255,255,255)" stroke-width="1" opacity="1" d="M 267.5 371 L 270 372.5 L 269.5 374 L 267.5 371 Z " /><path fill="rgb(255,255,255)" stroke="rgb(255,255,255)" stroke-width="1" opacity="1" d="M 265 373 Q 268 371.8 267 375.5 L 268.5 378 L 265 373 Z " /><path fill="rgb(255,255,255)" stroke="rgb(255,255,255)" stroke-width="1" opacity="1" d="M 365.5 375 L 368 376.5 L 367 378.5 Q 369.3 379.8 366.5 381 L 366.5 379 L 363.5 377 L 363.5 376 L 365.5 375 Z " /><path fill="rgb(255,255,255)" stroke="rgb(255,255,255)" stroke-width="1" opacity="1" d="M 370.5 375 L 373 376.5 L 370 378.5 L 370.5 380 Q 367.5 380.7 369 377 L 371 376.5 L 370.5 375 Z " /><path fill="rgb(255,255,255)" stroke="rgb(255,255,255)" stroke-width="1" opacity="1" d="M 374.5 377 L 377 377.5 L 373.5 379 L 374.5 377 Z " /><path fill="rgb(255,255,255)" stroke="rgb(255,255,255)" stroke-width="1" opacity="1" d="M 414.5 378 L 416 379.5 L 414.5 383 L 413 382.5 L 415 381.5 L 412.5 380 Q 411.2 382.3 410 379.5 L 412.5 379 L 414.5 378 Z " /><path fill="rgb(255,255,255)" stroke="rgb(255,255,255)" stroke-width="1" opacity="1" d="M 361.5 379 L 364 379.5 L 361.5 380 L 361.5 379 Z " /><path fill="rgb(255,255,255)" stroke="rgb(255,255,255)" stroke-width="1" opacity="1" d="M 417.5 384 Q 420.5 385.5 417.5 387 Q 414.5 385.5 417.5 384 Z " /><path fill="rgb(255,255,255)" stroke="rgb(255,255,255)" stroke-width="1" opacity="1" d="M 336.5 385 L 341 386.5 L 337.5 387 L 335.5 387 L 334 386.5 L 336.5 385 Z " /><path fill="rgb(255,255,255)" stroke="rgb(255,255,255)" stroke-width="1" opacity="1" d="M 295.5 387 L 299 388.5 Q 299.8 390.8 297.5 390 L 297.5 388 Q 294.5 388.5 295.5 387 Z " /><path fill="rgb(255,255,255)" stroke="rgb(255,255,255)" stroke-width="1" opacity="1" d="M 335.5 388 L 337.5 388 L 341 388.5 L 336.5 390 L 335.5 388 Z " /><path fill="rgb(255,255,255)" stroke="rgb(255,255,255)" stroke-width="1" opacity="1" d="M 331.5 389 L 334 389.5 L 330.5 391 L 331.5 389 Z " /><path fill="rgb(255,255,255)" stroke="rgb(255,255,255)" stroke-width="1" opacity="1" d="M 306.5 390 L 309 390.5 L 306.5 391 L 306.5 390 Z " /><path fill="rgb(255,255,255)" stroke="rgb(255,255,255)" stroke-width="1" opacity="1" d="M 323.5 390 L 327 390.5 L 323.5 391 L 323.5 390 Z " /><path fill="rgb(255,255,255)" stroke="rgb(255,255,255)" stroke-width="1" opacity="1" d="M 311.5 391 L 322 391.5 L 311.5 392 L 311.5 391 Z " /></svg>